<svg width="149" height="135" viewBox="0 0 149 135" fill="none" xmlns="http://www.w3.org/2000/svg">
<g clip-path="url(#clip0)">
<path d="M63.8572 126.254C91.7865 126.254 114.428 97.9908 114.428 63.1268C114.428 28.2628 91.7865 0 63.8572 0C35.9278 0 13.2866 28.2628 13.2866 63.1268C13.2866 97.9908 35.9278 126.254 63.8572 126.254Z" fill="#F2F2F2"/>
<path d="M20.0655 135C31.1474 135 40.131 133.206 40.131 130.992C40.131 128.779 31.1474 126.985 20.0655 126.985C8.98364 126.985 0 128.779 0 130.992C0 133.206 8.98364 135 20.0655 135Z" fill="#F2F2F2"/>
<path d="M117.953 130.926C135.1 130.926 149 128.15 149 124.725C149 121.301 135.1 118.524 117.953 118.524C100.806 118.524 86.9054 121.301 86.9054 124.725C86.9054 128.15 100.806 130.926 117.953 130.926Z" fill="#F2F2F2"/>
<path d="M111.055 65.1212C111.055 65.1212 111.319 66.2211 109.821 67.2109C108.323 68.2008 107.883 71.9403 109.645 73.0402C111.407 74.14 111.936 75.5698 111.055 76.5597C110.173 77.5496 108.587 80.1893 110.702 80.8492C112.817 81.5091 113.081 82.8289 112.464 83.3788C111.848 83.9288 113.874 82.389 113.874 82.389C113.874 82.389 114.226 85.0286 116.077 84.3687C117.927 83.7088 123.125 71.1704 120.482 69.4107C117.839 67.6509 111.055 65.1212 111.055 65.1212Z" fill="#2F2E41"/>
<path d="M114.248 75.7415C114.248 75.7415 115.162 79.7345 113.563 80.0198C112.57 80.2129 111.629 80.7021 110.821 81.4459L113.791 86.2946H119.275L122.702 82.0163C122.702 82.0163 118.132 77.738 119.046 75.171C119.96 72.604 114.248 75.7415 114.248 75.7415Z" fill="#FFB9B9"/>
<path opacity="0.1" d="M114.248 75.7415C114.248 75.7415 115.162 79.7345 113.563 80.0198C112.57 80.2129 111.629 80.7021 110.821 81.4459L113.791 86.2946H119.275L122.702 82.0163C122.702 82.0163 118.132 77.738 119.046 75.171C119.96 72.604 114.248 75.7415 114.248 75.7415Z" fill="black"/>
<path d="M115.619 125.37L120.874 127.652L124.53 127.937L124.302 123.944L116.761 121.16L115.619 125.37Z" fill="#FFB9B9"/>
<path d="M122.359 124.514C122.359 124.514 122.359 128.507 122.816 128.507C123.273 128.507 129.443 127.652 131.27 128.507C133.098 129.363 135.84 126.226 134.469 124.514C133.098 122.803 130.862 120.236 129.467 120.806C128.072 121.377 122.359 122.803 122.359 122.803V124.514Z" fill="#575A89"/>
<path d="M105.565 120.806C105.565 120.806 102.824 127.652 104.652 128.222C106.479 128.793 108.536 127.937 108.764 127.652C108.993 127.366 112.192 126.226 112.649 126.796C113.106 127.366 113.106 124.514 113.106 124.514L105.565 120.806Z" fill="#575A89"/>
<path d="M107.85 111.394C107.85 111.394 103.509 118.81 106.708 120.806C109.907 122.803 125.215 122.803 126.358 120.806C127.5 118.81 127.957 112.535 126.358 111.964C124.759 111.394 107.85 111.394 107.85 111.394Z" fill="#2F2E41"/>
<path opacity="0.2" d="M107.85 111.394C107.85 111.394 103.509 118.81 106.708 120.806C109.907 122.803 125.215 122.803 126.358 120.806C127.5 118.81 127.957 112.535 126.358 111.964C124.759 111.394 107.85 111.394 107.85 111.394Z" fill="black"/>
<path d="M116.076 77.738C118.978 77.738 121.331 74.801 121.331 71.1779C121.331 67.5549 118.978 64.6179 116.076 64.6179C113.174 64.6179 110.821 67.5549 110.821 71.1779C110.821 74.801 113.174 77.738 116.076 77.738Z" fill="#FFB9B9"/>
<path d="M107.85 81.4459L112.42 80.305C112.42 80.305 113.563 84.8685 117.218 84.0129C120.874 83.1572 121.788 80.305 121.788 80.305C121.788 80.305 124.53 81.7311 124.758 81.7311C124.987 81.7311 127.957 83.1572 127.957 84.0129C127.957 84.8685 124.53 93.4251 124.53 93.4251L124.987 108.827L108.079 108.257L109.221 93.1399L107.85 81.4459Z" fill="#E00B3B"/>
<path d="M105.337 88.8616C105.337 88.8616 103.966 103.978 104.88 105.119C105.794 106.26 109.45 109.398 109.45 109.398V105.975L107.622 101.697L109.45 91.7138L105.337 88.8616Z" fill="#FFB9B9"/>
<path d="M128.986 88.4338C128.986 88.4338 128.186 103.978 128.186 104.549C128.186 105.119 126.129 107.116 125.444 107.116C124.758 107.116 124.302 105.69 124.302 105.69L125.901 103.408L124.758 91.7138L128.986 88.4338Z" fill="#FFB9B9"/>
<path d="M126.815 110.253C126.815 110.253 137.097 103.123 137.325 110.253C137.554 117.384 132.07 120.236 132.07 120.236C132.07 120.236 117.904 125.539 117.333 123.6C116.761 121.662 115.619 118.525 116.533 118.239C117.447 117.954 118.589 117.384 119.046 117.954C119.503 118.525 125.215 113.676 125.215 113.676L126.815 110.253Z" fill="#2F2E41"/>
<path opacity="0.2" d="M131.613 109.398C131.613 109.398 129.557 110.538 128.871 111.394C128.186 112.25 125.216 113.676 125.216 113.676" stroke="black" stroke-width="2" stroke-miterlimit="10"/>
<path d="M109.221 82.0163L107.85 81.4459C107.85 81.4459 102.824 88.0059 104.423 89.7173C106.022 91.4286 106.936 91.999 107.393 92.5695C107.85 93.1399 110.135 93.4251 110.135 93.4251L109.221 82.0163Z" fill="#E00B3B"/>
<path d="M125.901 83.4424L127.957 84.0129C127.957 84.0129 129.557 88.2912 130.014 88.8616C130.471 89.4321 129.328 89.1468 128.643 90.2877C127.957 91.4286 127.272 93.4252 125.901 93.4252C124.53 93.4252 122.702 90.573 122.702 90.573L125.901 83.4424Z" fill="#E00B3B"/>
<path d="M108.307 112.82C108.307 112.82 99.6248 105.119 96.6544 110.824C93.684 116.528 109.45 124.229 111.735 125.37C114.02 126.511 116.076 127.652 116.076 127.652C116.076 127.652 118.132 121.377 118.132 120.236C118.132 119.095 116.533 119.095 116.076 119.095C115.619 119.095 113.563 118.525 113.106 117.669C112.649 116.813 108.307 112.82 108.307 112.82Z" fill="#2F2E41"/>
<path opacity="0.2" d="M103.509 110.824C103.509 110.824 105.794 113.105 107.85 113.676C109.907 114.246 110.592 115.672 110.592 115.672" stroke="black" stroke-width="2" stroke-miterlimit="10"/>
<path d="M106.731 100.099L106.914 112.176C106.92 112.575 107.052 112.954 107.281 113.232C107.511 113.51 107.819 113.663 108.138 113.659L126.142 113.406C126.448 113.402 126.742 113.253 126.964 112.988C127.186 112.724 127.319 112.364 127.337 111.982L127.883 100.158C127.893 99.9525 127.869 99.7467 127.812 99.5533C127.756 99.3599 127.668 99.1829 127.555 99.0332C127.442 98.8835 127.305 98.7642 127.154 98.6827C127.002 98.6012 126.839 98.5591 126.674 98.5591H107.942C107.781 98.5591 107.622 98.5992 107.473 98.677C107.325 98.7547 107.19 98.8687 107.078 99.0121C106.965 99.1555 106.876 99.3255 106.817 99.5122C106.757 99.6989 106.728 99.8986 106.731 100.099Z" fill="#575A89"/>
<path d="M116.357 62.9372C116.357 62.9372 116.65 64.1556 114.99 65.2522C113.331 66.3488 112.843 70.4914 114.795 71.7098C116.747 72.9283 117.333 74.5122 116.357 75.6088C115.381 76.7054 113.624 79.6296 115.966 80.3606C118.309 81.0917 118.602 82.5538 117.918 83.163C117.235 83.7722 119.48 82.0664 119.48 82.0664C119.48 82.0664 119.871 84.9906 121.92 84.2596C123.97 83.5285 126.015 70.2397 123.73 66.817C121.606 63.6346 116.357 62.9372 116.357 62.9372Z" fill="#2F2E41"/>
<path d="M115.733 61.6831C115.734 59.898 120.012 61.1807 121.846 63.673C123.116 65.3989 125.046 67.9955 123.429 69.8258C121.812 71.6561 126.2 74.0555 127.377 74.7829C128.554 75.5104 130.877 77.735 128.779 79.2274C126.681 80.7198 126.715 82.2263 127.505 82.583C128.294 82.9397 125.764 82.0526 125.764 82.0526C125.764 82.0526 126.019 85 123.888 84.9859C121.756 84.9717 115.64 70.3475 117.101 66.2825C118.46 62.5029 115.733 61.6831 115.733 61.6831Z" fill="#2F2E41"/>
<path d="M116.66 61.2919C110.939 60.8618 110.365 66.2376 110.365 66.2376C110.404 69.3485 114.362 67.8327 115.461 68.2965C116.787 67.1056 119.343 64.8524 121.172 63.2444C119.844 62.0778 118.281 61.4012 116.66 61.2919Z" fill="#2F2E41"/>
<path d="M115.03 95.5954C115.03 95.5954 109.898 65.5722 77.7769 43.7928" stroke="#3F3D56" stroke-width="2" stroke-miterlimit="10"/>
<path d="M79.1003 43.1379L79.1645 43.4671L77.8653 43.8604L78.2746 45.4494L78.0162 45.5528L77.5179 43.6174L79.1003 43.1379Z" fill="#3F3D56"/>
<path d="M9.28347 126.272C9.28347 130.075 7.47263 131.403 5.23866 131.403C5.18691 131.403 5.13524 131.402 5.08365 131.401C4.98014 131.398 4.87762 131.392 4.77634 131.383C2.76022 131.205 1.19385 129.809 1.19385 126.272C1.19385 122.613 4.94047 117.994 5.2219 117.653L5.22239 117.652C5.23324 117.639 5.23866 117.632 5.23866 117.632C5.23866 117.632 9.28347 122.47 9.28347 126.272Z" fill="#E00B3B"/>
<path d="M5.09122 130.821L6.57059 128.241L5.08752 131.104L5.08358 131.401C4.98007 131.398 4.87755 131.392 4.77627 131.383L4.93572 127.579L4.93448 127.549L4.93719 127.544L4.95223 127.184L3.46545 124.313L4.95691 126.915L4.96036 126.991L5.08087 124.117L3.80801 121.15L5.09639 123.612L5.22183 117.653L5.22232 117.632V117.652L5.20138 122.351L6.46857 120.488L5.1962 122.756L5.16269 125.33L6.34584 122.86L5.15776 125.709L5.13903 127.139L6.85671 123.702L5.13262 127.639L5.09122 130.821Z" fill="#3F3D56"/>
<path d="M28.5762 125.287L29.4414 124.485C29.4414 124.485 30.0142 128.478 29.3751 129.077C28.736 129.675 26.3394 130.672 26.3394 131.869C26.3394 133.066 20.9071 134.661 20.7473 132.866C20.5875 131.071 21.2266 130.074 21.2266 130.074C21.2266 130.074 23.783 126.883 24.1026 126.284C24.4221 125.686 25.221 124.49 25.221 124.49L28.5762 125.287Z" fill="#2F2E41"/>
<path d="M15.7943 75.6258C15.7943 75.6258 15.8183 75.8013 15.8598 76.1224C15.8982 76.4076 15.9509 76.8105 16.0148 77.3071C16.6859 82.4189 18.6431 97.4669 18.5105 97.9635C18.3507 98.5619 17.2323 100.756 18.5105 101.354C18.6335 101.412 18.7661 101.599 18.9083 101.895C19.1827 102.53 19.409 103.197 19.5841 103.885C20.3462 106.645 21.1611 111.063 21.6324 114.122C21.8385 115.467 21.9791 116.548 22.0207 117.114C22.0351 117.245 22.0367 117.378 22.0255 117.509C21.8657 118.307 22.9841 121.099 23.4634 121.897C23.9427 122.695 24.7416 123.492 24.5818 124.29C24.4221 125.088 28.5762 127.282 29.0555 125.886C29.5348 124.49 29.5348 123.692 29.6946 123.293C29.8543 122.894 30.0141 120.102 29.2153 119.703C28.4164 119.304 28.8957 112.323 28.0968 110.927C27.83 110.463 27.4226 108.889 26.996 106.996C26.8283 106.254 26.6589 105.465 26.4927 104.673C25.8185 101.428 25.2209 98.163 25.2209 98.163L25.3807 74.828L16.5932 73.4319L16.3679 74.0522L15.9189 75.2828L15.7943 75.6258Z" fill="#2F2E41"/>
<path d="M15.315 113.919C15.315 113.919 14.0368 112.323 13.3977 113.919C12.7586 115.515 12.1196 121.697 11.0011 123.093C9.88273 124.49 8.44477 131.47 10.0425 131.869C11.6402 132.268 13.3977 131.271 13.5575 130.074C13.7173 128.877 17.0725 122.695 17.0725 122.096C17.0725 121.498 14.8357 119.304 14.8357 119.304L15.315 113.919Z" fill="#2F2E41"/>
<path d="M34.9671 64.6564C34.9671 64.6564 32.8901 87.9913 32.4108 90.1852C31.9314 92.3791 29.3751 100.756 28.5762 102.152C27.7773 103.548 22.6646 114.916 22.0255 115.515C21.3864 116.113 20.1082 117.708 20.1082 117.708C20.1082 117.708 17.7116 120.7 17.3921 121.298C17.0725 121.897 14.3564 120.102 14.1966 118.905C14.0368 117.708 14.3564 115.714 14.5162 114.916C14.6759 114.118 14.1966 112.922 14.6759 112.323C15.1553 111.725 17.5519 108.733 17.5519 107.337C17.5519 105.941 21.706 97.7641 23.3037 95.9691C24.9014 94.1741 24.5819 91.1824 24.5819 91.1824V79.0164L15.7944 75.6258C15.7944 75.6258 16.2737 66.0525 17.3921 66.0525C18.5105 66.0525 33.2096 62.8614 34.9671 64.6564Z" fill="#2F2E41"/>
<path d="M22.0254 31.3494C24.9374 31.3494 27.298 28.4027 27.298 24.7677C27.298 21.1328 24.9374 18.1861 22.0254 18.1861C19.1135 18.1861 16.7529 21.1328 16.7529 24.7677C16.7529 28.4027 19.1135 31.3494 22.0254 31.3494Z" fill="#9F616A"/>
<path d="M23.7829 29.9533C23.7829 29.9533 24.422 32.9449 25.2209 33.7427C26.0198 34.5405 23.1439 37.931 23.1439 37.931L17.7116 38.3299L16.7529 34.5405C16.7529 34.5405 18.5104 30.1527 18.0311 27.3605C17.5518 24.5683 23.7829 29.9533 23.7829 29.9533Z" fill="#9F616A"/>
<path d="M26.0198 33.3438C26.0198 33.3438 24.5818 33.5433 24.2623 34.1416C23.9427 34.7399 21.7059 36.5349 19.9484 36.136C18.1909 35.7371 17.0725 35.1388 16.753 35.3382C16.4334 35.5377 15.7943 39.726 15.7943 39.726L17.5518 46.1082L17.2323 63.6592L16.753 68.4459C16.753 68.4459 15.7943 66.8503 19.6289 67.8475C23.4634 68.8448 28.4164 67.0498 30.0141 66.8503C31.6119 66.6509 34.328 66.0526 34.4878 64.8559C34.6475 63.6592 34.0085 59.2715 34.0085 59.2715L31.4521 45.9088L29.8544 38.7288L26.0198 33.3438Z" fill="#E00B3B"/>
<path d="M24.5085 32.4436C24.5085 32.4436 25.86 31.5488 26.3394 32.3465C26.8187 33.1443 32.8901 34.341 32.8901 34.9393C32.8901 35.5376 34.1683 51.6926 33.8487 53.0887C33.5292 54.4848 34.4878 56.0804 34.4878 56.0804L35.6062 62.0637C35.6062 62.0637 38.6419 73.432 37.3637 73.8308C36.0855 74.2297 34.9671 73.8308 34.4878 73.8308C34.0085 73.8308 34.1683 66.252 32.8901 64.2575C31.6119 62.2631 29.8544 57.277 29.5348 56.2798C29.2153 55.2826 25.221 41.521 25.3807 39.9254C25.5405 38.3299 24.5085 32.4436 24.5085 32.4436Z" fill="#D0CDE1"/>
<path d="M17.8714 33.3438C17.8714 33.3438 16.5932 33.3438 16.4334 33.7427C16.2736 34.1416 14.6759 36.7343 14.0368 37.3327C13.3977 37.931 11.1609 40.5238 11.1609 41.1221C11.1609 41.7204 15.7943 46.1082 15.7943 46.1082C15.7943 46.1082 17.7116 57.8754 16.7529 61.8642C15.7943 65.8531 14.3564 75.4264 14.9954 76.0247C15.6345 76.6231 17.0725 76.8225 17.0725 76.0247C17.0725 75.227 18.0311 66.6509 18.83 64.8559C19.6289 63.0609 22.0255 51.6926 21.0668 48.5015C20.1082 45.3104 17.8714 33.3438 17.8714 33.3438Z" fill="#D0CDE1"/>
<path d="M38.9615 53.0887C38.9615 53.0887 39.1212 59.2715 37.3637 62.4626C35.6062 65.6537 34.4878 69.2437 34.4878 69.2437C34.4878 69.2437 31.6119 68.2465 31.1326 67.0498C30.6532 65.8531 27.6176 66.8503 27.6176 66.4515C27.6176 66.0526 31.2923 64.0581 31.6119 63.6593C31.9314 63.2604 33.0498 63.2604 33.6889 62.4626C34.328 61.6648 34.4878 59.8698 34.4878 59.8698L35.1269 54.6843L38.9615 53.0887Z" fill="#9F616A"/>
<path d="M25.6569 20.7096C26.0625 20.6636 26.4808 20.613 26.8393 20.3717C27.6426 19.8309 27.8556 18.2911 27.2441 17.4454C27.0755 17.2302 26.8869 17.0409 26.6824 16.8816L25.4679 15.8497C24.9307 15.3933 24.3809 14.9294 23.7544 14.7143C23.1878 14.5197 22.5893 14.5397 22.0028 14.5852C20.8641 14.6736 19.7184 14.856 18.6474 15.3468C17.5764 15.8375 16.5774 16.6586 15.9287 17.8301C14.9004 19.6874 14.8863 22.1923 15.4527 24.3364C16.019 26.4805 17.0948 28.3477 18.1549 30.1769L18.7049 26.8268C18.7539 26.5284 18.8172 26.2014 19.016 26.0248C19.5102 25.5859 20.1146 26.4871 20.721 26.4812C21.1107 26.4775 21.4378 26.0774 21.5855 25.6273C21.7332 25.1771 21.7429 24.6786 21.7771 24.1941C21.8494 23.1678 22.1368 21.7397 22.9154 21.1737C23.6409 20.6463 24.8414 20.8021 25.6569 20.7096Z" fill="#2F2E41"/>
<path opacity="0.1" d="M25.3612 75.7868C25.3612 75.7868 24.8216 95.271 24.502 95.8693C24.1825 96.4677 24.502 75.7255 24.502 75.7255L25.3612 75.7868Z" fill="black"/>
<path d="M31.6118 34.9393H32.89C32.89 34.9393 38.3223 44.1137 37.6832 44.7121C37.0441 45.3104 37.6832 46.906 37.6832 46.906L38.9614 49.8976C38.9614 49.8976 40.5591 51.6926 40.0798 52.0915C39.6005 52.4904 38.9614 54.0859 38.9614 54.0859C38.9614 54.0859 35.7659 53.4876 34.8073 55.8809L32.735 52.6153L31.6118 34.9393Z" fill="#D0CDE1"/>
<path d="M32.0636 37.8903L27.6776 40.1512L31.0528 50.354L35.4388 48.0931L32.0636 37.8903Z" fill="#2F2E41"/>
<path d="M31.5496 43.8743C32.034 43.6246 32.2778 42.9718 32.094 42.4162C31.9102 41.8607 31.3685 41.6127 30.884 41.8625C30.3996 42.1122 30.1558 42.765 30.3396 43.3205C30.5234 43.8761 31.0651 44.124 31.5496 43.8743Z" fill="#E00B3B"/>
<path d="M28.4164 50.8948C28.4164 50.8948 16.9127 62.8615 14.9954 59.072C13.0782 55.2826 17.0725 52.0915 17.0725 52.0915C17.0725 52.0915 20.5875 52.2909 24.5818 49.0999L28.5762 46.906C28.5762 46.906 32.2227 40.4073 33.4653 42.8819C34.7079 45.3566 31.3442 49.6635 28.4164 50.8948Z" fill="#9F616A"/>
<path d="M12.9184 40.3243L11.1609 41.1221V47.1054L10.5219 48.3021C10.5219 48.3021 10.6816 50.6954 11.1609 51.2937C11.6403 51.8921 12.5989 51.6926 12.2794 53.0887C12.0873 53.9989 12.0331 54.9459 12.1196 55.8809C12.1196 55.8809 14.9955 60.4681 15.1553 59.8698C15.315 59.2715 17.5519 51.8921 17.8714 51.8921C18.191 51.8921 14.676 40.3243 14.676 40.3243H12.9184Z" fill="#D0CDE1"/>
<path d="M33.9286 70.54C33.9286 70.54 35.5806 68.5456 34.7546 68.4459C33.9286 68.3461 31.0526 66.3517 30.5733 67.3489C30.094 68.3461 33.9286 70.54 33.9286 70.54Z" fill="#2F2E41"/>
<path d="M65.3485 32.4943C66.6214 32.4943 67.6533 31.8123 67.6533 30.9711C67.6533 30.1299 66.6214 29.4479 65.3485 29.4479C64.0756 29.4479 63.0437 30.1299 63.0437 30.9711C63.0437 31.8123 64.0756 32.4943 65.3485 32.4943Z" fill="#57B894"/>
<path d="M74.161 36.0484C68.9639 33.5981 63.7667 33.5981 58.5696 36.0484V28.094C63.6535 26.179 69.0771 26.179 74.161 28.094V36.0484Z" stroke="#3F3D56" stroke-width="2" stroke-miterlimit="10"/>
<path d="M71.9917 34.4033C68.2407 32.6349 64.4898 32.6349 60.7388 34.4033V28.6624C64.408 27.2803 68.3224 27.2803 71.9917 28.6624V34.4033Z" stroke="#3F3D56" stroke-width="2" stroke-miterlimit="10"/>
<path d="M66.162 31.8173C67.4349 31.8173 68.4668 31.1354 68.4668 30.2942C68.4668 29.4529 67.4349 28.771 66.162 28.771C64.8891 28.771 63.8572 29.4529 63.8572 30.2942C63.8572 31.1354 64.8891 31.8173 66.162 31.8173Z" stroke="#3F3D56" stroke-width="2" stroke-miterlimit="10"/>
<path d="M67.0432 42.0333C68.2904 41.7155 69.1922 40.7898 69.0574 39.9656C68.9227 39.1413 67.8024 38.7307 66.5551 39.0485C65.3079 39.3662 64.4061 40.292 64.5409 41.1162C64.6756 41.9405 65.796 42.351 67.0432 42.0333Z" fill="#57B894"/>
<path d="M76.2471 43.3157C70.7624 42.2123 65.6702 43.5096 60.9706 47.2077L59.6963 39.4141C64.3708 36.2687 69.6848 34.9148 74.9728 35.522L76.2471 43.3157Z" stroke="#3F3D56" stroke-width="2" stroke-miterlimit="10"/>
<path d="M73.8582 42.2455C69.8997 41.4491 66.2245 42.3855 62.8325 45.0545L61.9128 39.4295C65.2866 37.1594 69.1219 36.1822 72.9385 36.6205L73.8582 42.2455Z" stroke="#3F3D56" stroke-width="2" stroke-miterlimit="10"/>
<path d="M67.7318 41.167C68.979 40.8492 69.8808 39.9234 69.746 39.0992C69.6113 38.275 68.4909 37.8644 67.2437 38.1822C65.9965 38.4999 65.0947 39.4257 65.2295 40.2499C65.3642 41.0741 66.4846 41.4847 67.7318 41.167Z" stroke="#3F3D56" stroke-width="2" stroke-miterlimit="10"/>
<path d="M68.6205 50.2078C68.6673 49.3686 67.6758 48.5989 66.4059 48.4886C65.1361 48.3783 64.0687 48.9692 64.022 49.8084C63.9752 50.6476 64.9667 51.4173 66.2365 51.5276C67.5064 51.6379 68.5737 51.047 68.6205 50.2078Z" fill="#57B894"/>
<path d="M74.8302 55.8368C69.7818 52.9421 64.5972 52.4917 59.2764 54.4857L59.7187 46.5506C64.8969 45.0807 70.3074 45.5507 75.2725 47.9016L74.8302 55.8368Z" stroke="#3F3D56" stroke-width="2" stroke-miterlimit="10"/>
<path d="M72.7577 54.0077C69.1141 51.9185 65.3721 51.5935 61.5319 53.0326L61.8511 47.3055C65.5884 46.2447 69.4934 46.5839 73.0769 48.2806L72.7577 54.0077Z" stroke="#3F3D56" stroke-width="2" stroke-miterlimit="10"/>
<path d="M69.4696 49.603C69.5164 48.7638 68.5249 47.9941 67.255 47.8838C65.9852 47.7735 64.9179 48.3643 64.8711 49.2035C64.8243 50.0427 65.8158 50.8124 67.0856 50.9227C68.3555 51.0331 69.4228 50.4422 69.4696 49.603Z" stroke="#3F3D56" stroke-width="2" stroke-miterlimit="10"/>
<path d="M56.2542 36.233C56.2542 36.233 46.2897 34.5313 39.1738 39.7369" stroke="#3F3D56" stroke-width="2" stroke-miterlimit="10"/>
<path d="M39.4135 37.9876L39.6724 38.0898L39.2678 39.6805L40.5685 40.0679L40.5052 40.3974L38.9213 39.9251L39.4135 37.9876Z" fill="#3F3D56"/>
</g>
<defs>
<clipPath id="clip0">
<rect width="149" height="135" fill="white"/>
</clipPath>
</defs>
</svg>
