<svg width="168" height="128" viewBox="0 0 168 128" fill="none" xmlns="http://www.w3.org/2000/svg">
<path d="M168 126.553H0V128H168V126.553Z" fill="#85848B"/>
<path d="M133.1 101.008C133.1 102.12 127.595 105.365 121.056 105.365C114.518 105.365 109.423 102.12 109.423 101.008C109.423 99.8947 114.723 100.253 121.268 100.253C127.813 100.253 133.1 99.8928 133.1 101.008Z" fill="#504F60"/>
<path opacity="0.2" d="M133.1 101.008C133.1 102.12 127.595 105.365 121.056 105.365C114.518 105.365 109.423 102.12 109.423 101.008" fill="black"/>
<path d="M67.2508 80.5868C68.3121 80.7472 69.4133 80.849 70.4297 80.4604C70.5898 80.402 70.7658 80.2718 70.7498 80.0832C70.7384 80.0146 70.7137 79.9501 70.6778 79.8946C70.2947 79.2174 69.9728 78.4948 69.7174 77.7386C69.7073 77.6991 69.6865 77.6647 69.6582 77.6405C69.6251 77.6264 69.5888 77.6264 69.5558 77.6405C69.0868 77.7857 68.6818 78.1422 68.216 78.295C67.9785 78.3718 67.7306 78.3936 67.4861 78.3591C67.2748 78.3308 66.9867 78.1252 66.7946 78.1516C66.9035 78.9759 67.1692 79.7455 67.2508 80.5868Z" fill="#F30A1A"/>
<path d="M87.3212 78.4988C88.0207 77.9329 88.7458 77.3387 89.1587 76.4654C89.1882 76.4131 89.2054 76.3526 89.2084 76.2899C89.2013 76.2283 89.1809 76.1698 89.1491 76.1202C88.7558 75.3832 88.2493 74.7391 87.6558 74.2207C87.346 74.4785 87.0662 74.7829 86.8234 75.1261C86.6473 75.3449 86.1607 75.692 86.1559 76.0259C86.1559 76.2145 86.3416 76.4333 86.4281 76.5917C86.5449 76.7955 86.6553 77.0029 86.761 77.2142C86.8218 77.318 87.3772 78.4573 87.3212 78.4988Z" fill="#F30A1A"/>
<path d="M71.4109 83.1126C71.4234 83.3069 71.3781 83.5003 71.2828 83.6596C71.2081 83.7482 71.1156 83.8131 71.0139 83.8482C69.5301 84.4745 67.8126 83.6936 66.332 84.3104C66.0279 84.4368 65.7398 84.6197 65.4341 84.7404C65.0696 84.8696 64.6936 84.9481 64.3136 84.9743C63.7902 85.0328 63.2636 85.0705 62.7386 85.0875C62.3397 85.1208 61.9388 85.0794 61.5509 84.9649C61.3569 84.9064 61.1756 84.8004 61.0187 84.6538C60.8618 84.5073 60.7328 84.3234 60.6402 84.1142C60.5597 83.9267 60.5436 83.7098 60.5953 83.5087C60.6186 83.4398 60.6516 83.376 60.693 83.3201C60.7933 83.1874 60.9111 83.0747 61.0419 82.9862L61.5877 82.5712C61.8437 82.3579 62.1218 82.1843 62.4153 82.0544C62.6314 81.9714 62.8602 81.9356 63.0795 81.8658C63.8462 81.6017 64.4321 80.8849 64.9763 80.1964L65.719 79.2627C65.7884 79.16 65.8765 79.0769 65.9767 79.0194C66.0797 78.9789 66.1892 78.9667 66.2968 78.9836C67.0183 79.0443 67.7149 79.3194 68.3216 79.7833C68.4767 79.9204 68.6442 80.0368 68.821 80.1304C69.2564 80.3304 69.815 80.1795 70.2168 79.9267C70.4073 79.806 70.3657 79.7381 70.4457 79.523C70.5257 79.308 70.721 79.1703 70.8907 79.3665C70.9419 79.4343 70.9781 79.5159 70.9963 79.6041C71.1564 80.2266 71.0955 80.8962 71.0955 81.5489C71.0909 81.6509 71.1017 81.7531 71.1276 81.8507C71.1684 81.949 71.2172 82.0425 71.2732 82.1299C71.2846 82.153 71.2948 82.1769 71.3036 82.2015C71.4015 82.4905 71.4383 82.8031 71.4109 83.1126Z" fill="#514E7F"/>
<path d="M71.4109 83.1125C71.4234 83.3069 71.3781 83.5003 71.2828 83.6595C71.2081 83.7481 71.1156 83.813 71.0139 83.8482C69.5301 84.4744 67.8126 83.6935 66.332 84.3103C66.0279 84.4367 65.7398 84.6197 65.4341 84.7404C65.0696 84.8695 64.6936 84.948 64.3136 84.9743C63.7902 85.0327 63.2636 85.0705 62.7386 85.0875C62.3397 85.1207 61.9388 85.0793 61.5509 84.9648C61.3569 84.9063 61.1756 84.8003 61.0187 84.6538C60.8618 84.5072 60.7328 84.3233 60.6402 84.1141C60.5597 83.9266 60.5436 83.7098 60.5953 83.5086C60.6186 83.4397 60.6516 83.3759 60.693 83.32C60.7794 83.5332 60.8418 83.8161 60.8963 83.918C60.9698 84.0689 61.0698 84.1996 61.1896 84.3015C61.3094 84.4033 61.4462 84.4738 61.5909 84.5084C61.8076 84.524 62.0248 84.4914 62.2312 84.4122C63.5757 84.0198 65.0051 84.0142 66.2968 83.42C66.7402 83.2144 67.1628 82.9409 67.6286 82.8164C68.0943 82.6919 68.5889 82.7258 69.0691 82.6787C69.8278 82.607 70.5625 82.3373 71.31 82.1958C71.4065 82.4871 71.4412 82.8018 71.4109 83.1125Z" fill="#464353"/>
<path d="M90.7196 78.3838C90.6492 79.0477 90.2922 79.6193 89.9001 80.104C89.5079 80.5888 89.0645 81.0245 88.7524 81.5829C88.3682 82.2751 88.1954 83.1334 87.696 83.7181C87.5043 83.9308 87.2889 84.1116 87.0557 84.2557C86.7945 84.4373 86.5183 84.5871 86.2314 84.7028C85.4855 84.9838 84.682 84.9197 83.9025 84.8518C83.6494 84.8489 83.3988 84.792 83.163 84.6839C83.0556 84.6196 82.9528 84.5452 82.8556 84.4613C82.6602 84.3195 82.4958 84.1257 82.3754 83.8954C82.3164 83.7702 82.2998 83.6233 82.329 83.4842C82.3736 83.3311 82.4501 83.1935 82.5515 83.0843C82.7269 82.8694 82.9152 82.6695 83.1149 82.4864C83.389 82.278 83.6359 82.0238 83.848 81.7319C83.9782 81.5012 84.074 81.246 84.1313 80.9774C84.2447 80.5067 84.314 80.0228 84.3378 79.5344C84.3369 79.2098 84.3654 78.8861 84.4227 78.5686C84.5411 78.0706 84.8548 77.6255 84.8196 77.1105C84.8054 77.0368 84.811 76.9597 84.8356 76.8898C84.8729 76.8353 84.9248 76.7974 84.9829 76.7823C85.2275 76.6674 85.4854 76.5968 85.748 76.573C85.8797 76.5622 86.0117 76.5861 86.1346 76.6429C86.2576 76.6996 86.3682 76.7879 86.4587 76.9012C86.5675 77.0558 86.6395 77.2784 86.7996 77.3388C86.8789 77.3643 86.9621 77.3682 87.0429 77.3501C87.4367 77.3029 87.8528 77.2445 88.1634 76.9446C88.3069 76.7928 88.4222 76.6078 88.5021 76.401C88.582 76.1942 88.6247 75.9702 88.6275 75.743C88.6275 75.5714 88.5619 75.3922 88.7876 75.3657C88.9573 75.3393 89.0917 75.5544 89.1782 75.6864C89.4903 76.1787 89.8104 76.6937 89.9273 77.2935C89.9727 77.2727 90.021 77.2619 90.0697 77.2614C90.1696 77.2604 90.2681 77.2878 90.357 77.3414C90.4459 77.3949 90.5225 77.473 90.5803 77.5689C90.7078 77.8122 90.7572 78.1013 90.7196 78.3838Z" fill="#514E7F"/>
<path d="M90.7194 78.3837C90.649 79.0477 90.292 79.6192 89.8999 80.104C89.5077 80.5887 89.0643 81.0245 88.7522 81.5828C88.3681 82.2751 88.1952 83.1333 87.6958 83.7181C87.5041 83.9307 87.2887 84.1116 87.0556 84.2556C86.7944 84.4372 86.5182 84.587 86.2312 84.7027C85.4853 84.9837 84.6818 84.9196 83.9023 84.8517C83.6492 84.8488 83.3987 84.792 83.1628 84.6838C83.0554 84.6195 82.9526 84.5451 82.8555 84.4612C82.6601 84.3194 82.4956 84.1256 82.3753 83.8954C82.5253 83.8104 82.689 83.7641 82.8555 83.7596C83.2012 83.7822 83.4541 84.167 83.7854 84.2858C84.2576 84.4537 84.7282 84.0614 85.2068 83.9274C85.5189 83.8407 85.8471 83.8633 86.156 83.7388C86.4134 83.6216 86.6513 83.4517 86.8587 83.2371C87.1429 82.9976 87.3958 82.7103 87.6094 82.3845C87.7867 82.0586 87.9343 81.7114 88.0495 81.3489C88.3023 80.6541 88.5998 79.9832 88.9395 79.3419C88.9897 79.2404 89.0505 79.1466 89.1204 79.0627C89.1956 78.9816 89.2804 78.925 89.3653 78.8534C89.6854 78.5685 89.8182 78.0989 89.9303 77.6386C89.9606 77.4987 90.003 77.3628 90.0567 77.2331C90.1566 77.232 90.2551 77.2594 90.3441 77.313C90.433 77.3665 90.5096 77.4446 90.5674 77.5405C90.7051 77.7896 90.7593 78.0901 90.7194 78.3837Z" fill="#464353"/>
<path d="M57.1556 19.5738C57.554 19.9256 57.8819 20.3764 58.116 20.8942C58.3401 21.411 59.6318 25.4212 59.5565 26.0041C59.9775 25.5042 61.6374 25.4231 62.0631 24.9232C62.2408 24.7139 63.1996 23.6689 63.3437 23.4256C63.4877 23.1822 64.5569 22.671 64.6738 22.4145C65.1108 21.4921 61.5749 17.9969 62.0279 17.0858C62.053 17.044 62.0659 16.9937 62.0647 16.9425C62.0544 16.8995 62.0339 16.8608 62.0055 16.8312C61.7158 16.4822 61.3316 16.2653 60.9827 16.0069C60.6338 15.7485 60.2976 15.3882 60.2032 14.9128C59.8704 15.0933 59.565 15.3367 59.2988 15.6334C58.65 16.2886 58.0125 16.9569 57.3861 17.6385C57.1412 17.9063 56.6674 18.2628 56.5537 18.6458C56.4193 19.057 56.9219 19.3493 57.1556 19.5738Z" fill="#A1616A"/>
<path d="M62.8796 18.0892C62.3371 18.5188 61.8301 19.0076 61.3654 19.5492C60.9268 20.0604 60.5106 20.6527 60.405 21.3676C60.3602 21.6486 60.3666 21.9334 60.3298 22.2183C60.1697 23.4538 59.2637 24.3592 58.8636 25.5155C58.7477 25.8723 58.6624 26.242 58.6091 26.6189C58.4966 27.3334 58.4351 28.0578 58.425 28.7843C58.4154 29.4879 59.0012 29.9727 59.2157 30.6291C59.4302 31.2855 59.4878 31.9608 59.5967 32.6342C59.8016 33.9056 60.1777 35.1316 60.5571 36.3502C61.3462 38.9192 63.904 46.021 64.6931 48.592C67.1117 47.8771 73.5495 46.2342 75.6911 44.7271C76.405 44.2253 70.7371 38.5646 71.5006 38.1742C71.5443 38.1662 71.5857 38.1463 71.6218 38.1162C71.6578 38.086 71.6874 38.0465 71.7082 38.0005C71.729 37.9546 71.7404 37.9036 71.7416 37.8516C71.7428 37.7996 71.7338 37.7479 71.7151 37.7007C70.9516 33.766 68.5635 30.5329 67.4798 26.7019C67.1037 25.3721 66.4282 24.2366 65.916 22.9728C65.4518 21.8278 65.2037 20.5621 64.6483 19.4738C64.5436 19.2495 64.4065 19.0485 64.2433 18.8796C64.1048 18.7544 63.9551 18.6475 63.7968 18.5608C63.4798 18.3797 63.1853 18.2722 62.8796 18.0892Z" fill="#514E7F"/>
<path d="M57.2837 19.1267C59.3744 19.1267 61.0692 17.1295 61.0692 14.6657C61.0692 12.202 59.3744 10.2047 57.2837 10.2047C55.193 10.2047 53.4982 12.202 53.4982 14.6657C53.4982 17.1295 55.193 19.1267 57.2837 19.1267Z" fill="#A1616A"/>
<path d="M61.1349 16.7614C61.3236 16.5563 61.5606 16.4235 61.8146 16.3804C62.0687 16.3373 62.3278 16.3859 62.5579 16.52C62.814 16.6765 63.0381 16.9934 62.9805 17.3254L64.858 17.3593C65.1569 17.3497 65.4556 17.382 65.748 17.4555C66.0422 17.531 66.3049 17.7252 66.4907 18.0044C66.5131 18.0403 66.5387 18.0837 66.5771 18.0893C66.6084 18.0899 66.6389 18.0779 66.6636 18.0554C66.9524 17.8847 67.2778 17.819 67.5983 17.8667C68.6131 17.9441 69.5511 18.542 70.3466 19.289C70.4901 19.4052 70.6014 19.5685 70.6668 19.7587C70.7324 20.0095 70.654 20.3245 70.8268 20.5037C70.8268 22.5786 71.4319 24.5177 71.8352 26.5398C71.9073 26.9001 72.2002 27.2188 72.4035 27.5018C72.6546 27.8155 72.8596 28.1763 73.0101 28.5694C73.3526 29.6182 72.8804 30.8518 73.2134 31.9043C73.3542 32.3495 73.6263 32.7154 73.8536 33.1021C74.1532 33.5486 74.3427 34.0838 74.4011 34.6488C74.4155 34.9016 74.3883 35.1562 74.4011 35.4033C74.4225 35.7432 74.4762 36.0792 74.5611 36.405C74.6977 37.0136 74.8407 37.6216 74.9901 38.229C75.2334 39.2098 75.5503 40.268 76.2962 40.7905C74.4955 41.1508 72.5971 41.5035 70.8812 40.766C70.6419 40.6698 70.4147 40.5359 70.2058 40.368C69.5863 39.8474 69.287 38.9571 69.0197 38.1158C68.722 37.1727 68.4195 36.2126 68.3586 35.2091C68.3592 34.8899 68.321 34.5723 68.245 34.2659C68.0705 33.7189 67.6047 33.3888 67.1822 33.0851C66.705 32.777 66.2727 32.3809 65.9017 31.9119C65.7175 31.6756 65.5765 31.3974 65.4873 31.0944C65.3981 30.7913 65.3626 30.4699 65.383 30.1501C65.4151 29.8389 65.5191 29.539 65.5287 29.2258C65.5383 28.9127 65.4199 28.5543 65.1654 28.4713C63.8544 28.0035 63.2286 26.1739 62.9373 24.5969C62.8116 23.7819 62.7553 22.9541 62.7692 22.1259L62.7516 20.5169C62.5707 20.323 62.4252 20.0877 62.3239 19.8253C62.2226 19.563 62.1677 19.2791 62.1626 18.991C62.1799 18.8228 62.1772 18.6527 62.1546 18.4854C62.0912 18.281 61.9882 18.0969 61.8536 17.9479C61.5642 17.5978 61.3218 17.1977 61.1349 16.7614Z" fill="#464353"/>
<path d="M57.1028 21.8619C57.0595 22.3598 57.1556 22.871 57.0611 23.3595C57.0243 23.5482 56.9603 23.7368 56.9139 23.9122C56.772 24.6154 56.8334 25.3543 57.0883 26.0116C57.343 26.6625 57.6479 27.2845 57.9991 27.8696C58.1179 28.0694 58.2157 28.2853 58.2904 28.5128C58.351 28.7517 58.3886 28.9978 58.4025 29.2466C58.4952 30.2455 58.6438 31.236 58.8475 32.2118C59.0267 33.0568 61.0627 40.2812 61.5365 40.9508C61.6225 41.0991 61.7529 41.2036 61.9015 41.2432C62.0086 41.248 62.1152 41.2221 62.212 41.1678L63.1724 40.7339C63.2541 40.7045 63.3298 40.6557 63.3949 40.5906C63.4849 40.4666 63.5338 40.3085 63.5325 40.1454C63.6014 39.2249 61.5605 31.9496 61.3012 31.08C60.5169 28.4543 59.4733 25.923 58.9627 23.2049C58.8202 22.4504 58.745 21.2884 58.276 20.6867C58.0824 20.4377 58.148 20.5434 57.9159 20.6735C57.7986 20.7335 57.6852 20.8035 57.5765 20.8829C57.4407 20.9942 57.3276 21.1398 57.2457 21.3092C57.1637 21.4786 57.1149 21.6674 57.1028 21.8619Z" fill="#464353"/>
<path d="M60.0176 26.8434C60.2753 28.4486 60.541 30.0501 60.8051 31.6553L64.5635 30.4952C64.5939 30.0312 64.3842 29.6011 64.2433 29.1748C63.9008 28.1619 63.8928 27.0339 63.6159 25.9927C63.4062 25.2005 63.0412 24.4724 62.8444 23.6745C62.7307 23.2105 62.6731 22.7313 62.561 22.2617C62.4409 21.8004 62.2933 21.3498 62.1193 20.913C61.9083 20.2796 61.6331 19.6785 61.2997 19.1229C60.8196 19.3342 60.3073 19.5794 60.0336 20.0906C59.8933 20.3786 59.8131 20.7019 59.7999 21.0337C59.7343 22.0278 60.04 23.0275 59.9392 24.0159C59.8353 24.9572 59.8618 25.9121 60.0176 26.8434Z" fill="#F30A1A"/>
<path d="M64.6259 48.196C64.8372 49.1391 64.5314 50.1313 64.2817 51.065C63.9058 52.4714 63.6495 53.9183 63.5166 55.3845C63.5003 55.7577 63.4367 56.1258 63.3278 56.4767C63.2093 56.7917 63.0076 57.0576 62.87 57.3576C62.4922 58.146 62.5018 59.108 62.5835 60.0096C62.6379 60.6038 62.7195 61.1961 62.8204 61.7809C62.9436 62.4957 63.0957 63.2427 62.918 63.9406C63.2157 63.8633 63.4174 64.3179 63.3982 64.6744C63.379 65.0309 63.2813 65.4289 63.427 65.7364C63.7951 65.8948 63.7983 66.4909 63.7871 66.953C63.7932 67.7543 63.8792 68.552 64.0432 69.3297C64.6003 72.486 65.1914 75.6336 65.8167 78.7723C67.1693 79.2665 68.7491 79.7815 70.0392 79.0968C70.2793 78.9704 70.5194 78.7686 70.5739 78.463C70.5879 78.2983 70.5704 78.132 70.5226 77.9763L69.9112 75.3544C69.7623 74.7206 69.6135 74.0661 69.6919 73.4153C69.7511 72.9306 69.9304 72.4081 69.7287 71.9799C69.6599 71.8328 69.551 71.7177 69.471 71.5781C69.1509 71.0254 69.319 70.286 69.3446 69.6164C69.3545 69.4661 69.3459 69.3149 69.319 69.1675C69.2751 68.9953 69.2138 68.83 69.1365 68.6751C68.6312 67.5191 68.3885 66.2285 68.4322 64.929C68.4513 64.7632 68.432 64.5944 68.3762 64.4405C68.3373 64.377 68.3026 64.3101 68.2721 64.2405C68.2483 64.1194 68.2601 63.9924 68.3057 63.8803C68.1223 63.7162 67.9567 63.5262 67.8127 63.3144C67.9015 63.2494 67.9766 63.1614 68.0323 63.0571C68.088 62.9529 68.1229 62.8351 68.1343 62.7127C68.1457 62.5902 68.1334 62.4663 68.0982 62.3503C68.063 62.2343 68.0059 62.1292 67.9312 62.043C67.9965 62.0276 68.0568 61.991 68.1056 61.9376C68.1543 61.8841 68.1895 61.8157 68.2072 61.7401C68.225 61.6645 68.2246 61.5845 68.2061 61.5091C68.1876 61.4337 68.1517 61.3659 68.1025 61.3131C68.024 61.2489 67.92 61.2206 67.864 61.1244C67.7775 60.9848 67.848 60.7906 67.9184 60.6415L68.2913 59.8474C68.5698 59.257 68.6323 58.527 68.9316 57.9612C69.3606 57.1369 69.6407 56.2183 69.9176 55.3091L70.9948 51.8063L71.7199 52.5476C71.9614 52.765 72.1638 53.0369 72.3153 53.3474C72.4184 53.6542 72.4837 53.9769 72.509 54.3056C72.7747 56.2069 73.7895 57.8555 74.1657 59.7286C74.2489 60.1455 74.3049 60.5831 74.5082 60.9396C74.581 61.049 74.6463 61.1651 74.7035 61.2867C74.7565 61.4721 74.784 61.6663 74.7851 61.862C74.8187 62.2451 74.9218 62.6152 75.0876 62.9472C75.2533 63.2792 75.4777 63.5652 75.7455 63.786C76.1025 64.0746 76.5458 64.2726 76.7395 64.7291C76.7783 64.8704 76.832 65.0054 76.8996 65.1309C77.0725 65.3761 77.4454 65.4044 77.519 65.7118C77.5606 65.8835 77.4838 66.0891 77.5654 66.24C77.6118 66.3098 77.6732 66.3639 77.7431 66.3965L78.7851 67.0096C79.9504 67.6962 80.5458 69.2731 81.4054 70.4218C81.7022 70.796 81.9651 71.2056 82.1897 71.6441C82.561 72.4269 82.7323 73.4097 83.3598 73.9076C83.5284 74.0107 83.6819 74.1451 83.8143 74.3056C84.0112 74.6112 83.9392 75.0394 83.9568 75.4242C83.9744 75.809 84.2241 76.2674 84.5346 76.1504C84.4258 76.6165 84.4258 77.1085 84.5346 77.5745C85.8979 77.492 87.198 76.8715 88.2257 75.8128C88.5298 75.4997 88.8227 75.0998 88.8259 74.6244C88.8306 74.5424 88.8151 74.4605 88.7811 74.3886C88.7196 74.2958 88.6385 74.2236 88.5458 74.1793C87.571 73.5568 87.2781 72.1138 86.7851 70.9424C86.3546 69.9088 85.7175 69.0184 85.1845 68.0583C84.0256 65.9929 83.2349 63.4936 81.4822 62.1298C81.0965 61.8299 80.6483 61.5639 80.4546 61.0678C80.3474 60.7906 80.3346 60.4737 80.2497 60.187C80.1649 59.9002 79.9616 59.6211 79.7023 59.6211C79.8464 59.2061 79.8175 58.7006 79.8271 58.2516C79.837 58.0524 79.8175 57.8527 79.7695 57.6613C79.7029 57.4553 79.6165 57.2591 79.5118 57.0765C79.0545 56.1641 78.8259 55.1177 78.8524 54.0585C78.8652 53.5134 78.9468 52.9512 78.8075 52.4306C78.7371 52.1684 78.6139 51.9289 78.529 51.6761C78.4012 51.2181 78.3337 50.7398 78.329 50.2577L78.2329 48.445C78.2184 47.8413 78.1519 47.2409 78.0344 46.653C77.7143 45.2459 77.3942 39.3513 76.2977 38.6873C75.2013 38.0233 73.3173 42.5598 72.0833 42.6485C71.5373 42.6752 70.9978 42.798 70.4826 43.0125C69.6615 43.3747 68.9732 44.05 68.3025 44.7102L66.0328 46.9567C65.5526 47.4226 65.1557 47.8678 64.6259 48.196Z" fill="#464353"/>
<path d="M53.7319 9.71245C54.2313 8.9089 55.0892 8.4826 55.9343 8.44676C56.7795 8.41092 57.6118 8.72404 58.3689 9.16732C58.5924 9.31707 58.8312 9.43244 59.0796 9.51061C59.4798 9.60681 59.9247 9.47855 60.2865 9.69924C60.7667 9.99916 60.8595 10.7631 60.8179 11.3969C60.7763 12.0307 60.6754 12.7342 60.9619 13.2831C61.0636 13.4397 61.1561 13.6042 61.2389 13.7755C61.3621 14.1018 61.2901 14.479 61.2164 14.8242C61.0292 14.6356 60.9235 14.3508 60.7571 14.132C60.5906 13.9132 60.3009 13.766 60.0944 13.9301C59.8879 14.0942 59.8911 14.3923 59.8799 14.6601C59.8687 14.928 59.8111 15.2486 59.5966 15.3354C59.507 15.3594 59.4134 15.3512 59.3278 15.3119C59.2422 15.2726 59.1685 15.2039 59.1164 15.1147C58.7499 14.5866 58.8971 13.7434 58.5338 13.2115C58.3273 12.9097 57.9832 12.7625 57.7927 12.4456C57.6422 12.1967 57.6038 11.8798 57.4726 11.6119C57.3413 11.3441 57.0356 11.1479 56.8323 11.3327C56.7629 11.4109 56.705 11.502 56.661 11.6025C56.5343 11.8164 56.35 11.9738 56.1379 12.0491C55.9259 12.1244 55.6985 12.1133 55.4926 12.0175C55.3352 11.9036 55.1649 11.8166 54.9868 11.759C54.8702 11.7522 54.7543 11.7838 54.6522 11.8505C54.5501 11.9172 54.4658 12.0162 54.4089 12.1363C54.2941 12.3763 54.2386 12.6495 54.2489 12.9248C54.2489 13.302 54.3065 13.7038 54.124 14.0056C54.0546 14.1192 53.9678 14.2165 53.8679 14.2923C53.6006 14.4941 53.2277 14.6299 52.9812 14.3998C52.8976 14.3081 52.8355 14.1926 52.8007 14.0645C52.7659 13.9363 52.7597 13.7998 52.7827 13.6679C52.8307 13.4054 52.8938 13.147 52.9716 12.8946C53.1124 12.3098 52.9283 11.6515 53.082 11.1007C53.2429 10.6047 53.4617 10.1375 53.7319 9.71245Z" fill="#464353"/>
<path d="M55.76 23.0199C55.736 23.1574 55.7483 23.3003 55.7953 23.4293C55.8428 23.5171 55.9076 23.5902 55.9841 23.6424C56.5224 24.0376 57.1346 24.2714 57.7672 24.3233C57.8533 24.3251 57.9378 24.351 58.0137 24.3988C58.1642 24.5157 58.1738 24.776 58.1178 24.9835C58.0431 25.1793 58.0044 25.3914 58.0041 25.606C58.0506 26.0002 58.4475 26.1719 58.782 26.2304C59.251 26.3001 59.7648 26.2643 60.1362 25.9191C60.3877 25.6488 60.5795 25.3101 60.6948 24.9326C61.6136 22.4446 61.9353 19.6945 62.8653 17.214C62.9358 17.0521 62.9828 16.8774 63.0045 16.6972C63.0144 16.607 63.0035 16.5153 62.9731 16.4317C62.9427 16.3481 62.8939 16.2757 62.8317 16.2218C62.6588 16.0955 62.3899 16.1671 62.273 15.9691C62.2154 15.8691 62.2218 15.7333 62.1706 15.6277C62.0634 15.4032 61.7816 15.439 61.5896 15.3089C61.4391 15.2146 61.3351 15.0203 61.167 14.9826C61.0845 14.9771 61.002 14.9943 60.9262 15.033C60.8503 15.0716 60.7832 15.1306 60.73 15.2051C60.1842 15.805 59.8977 16.6557 59.5936 17.4592C59.1292 18.6909 58.5855 19.879 57.9673 21.013C58.0393 20.8809 57.6216 19.8812 57.4583 19.8378C57.1718 19.7699 56.8053 20.3622 56.65 20.5829C56.1628 21.279 55.8541 22.1244 55.76 23.0199Z" fill="#F30A1A"/>
<path opacity="0.1" d="M61.5749 15.4844C61.4599 15.4866 61.3469 15.5193 61.2441 15.5801C61.1413 15.6408 61.0514 15.728 60.9811 15.8352C60.8098 16.0974 60.7762 16.4445 60.733 16.7783C60.5873 17.8361 60.267 18.8499 59.7902 19.7624" fill="black"/>
<path opacity="0.1" d="M62.3915 16.2369C62.2328 16.2411 62.0777 16.2939 61.9416 16.3902C61.8055 16.4864 61.693 16.6228 61.6152 16.7858C61.5092 17.0825 61.4433 17.3969 61.4199 17.7177C61.2827 18.4287 61.018 19.0969 60.6436 19.6775" fill="black"/>
<path d="M100.432 53.1134V50.7706C100.432 49.046 99.8499 47.3922 98.815 46.1729C97.78 44.9536 96.3764 44.2687 94.913 44.2687H16.4032C14.9398 44.2687 13.5362 44.9536 12.5012 46.1729C11.4663 47.3922 10.8846 49.046 10.8842 50.7706V55.0902L100.432 53.1134Z" fill="#33323D"/>
<path d="M38.2441 41.5223C38.2441 41.5223 38.02 57.9064 40.485 63.2974C42.95 68.6883 44.0064 92.1403 44.0064 92.1403C44.0064 92.1403 69.8471 95.2903 87.8543 88.3677C105.862 81.4451 144.178 78.6138 144.178 78.6138L137.721 27.3282C137.721 27.3282 105.822 24.9176 87.6751 35.1166C69.5286 45.3156 38.2441 41.5223 38.2441 41.5223Z" fill="#8DD070"/>
<path opacity="0.1" d="M38.2441 41.5223C38.2441 41.5223 38.02 57.9064 40.485 63.2974C42.95 68.6883 44.0064 92.1403 44.0064 92.1403C44.0064 92.1403 69.8471 95.2903 87.8543 88.3677C105.862 81.4451 144.178 78.6138 144.178 78.6138L137.721 27.3282C137.721 27.3282 105.822 24.9176 87.6751 35.1166C69.5286 45.3156 38.2441 41.5223 38.2441 41.5223Z" fill="black"/>
<path d="M43.9633 47.5075C43.9633 47.5075 43.1549 61.0263 45.183 65.3459C47.211 69.6654 47.3054 88.9487 47.3054 88.9487C47.3054 88.9487 70.5611 90.22 87.1037 83.5841C103.646 76.9483 138.409 72.6438 138.409 72.6438L134.459 30.7027C134.459 30.7027 105.695 30.3538 88.9076 39.6946C72.1201 49.0353 43.9633 47.5075 43.9633 47.5075Z" fill="#8DD070"/>
<path opacity="0.1" d="M88.6521 75.9051C91.9611 75.4194 93.9269 68.246 93.0429 59.8828C92.159 51.5196 88.76 45.1337 85.4511 45.6194C82.1422 46.105 80.1763 53.2785 81.0603 61.6416C81.9442 70.0048 85.3432 76.3908 88.6521 75.9051Z" fill="black"/>
<path opacity="0.2" d="M120.232 2.3446C120.232 2.3446 89.242 11.5873 74.6281 27.8563C60.0143 44.1254 29.25 51.8289 29.25 51.8289C29.25 51.8289 33.3028 67.5018 37.0515 71.7422C40.8002 75.9825 47.9102 97.9235 47.9102 97.9235C47.9102 97.9235 73.3236 91.5743 88.6577 78.4686C103.992 65.3628 139.729 48.8108 139.729 48.8108L120.232 2.3446Z" fill="black"/>
<path d="M28.7843 49.4824C28.7843 49.4824 32.8356 65.1572 36.581 69.3975C40.3265 73.6379 47.4398 95.577 47.4398 95.577C47.4398 95.577 72.8564 89.2297 88.1921 76.124C103.528 63.0182 139.262 46.4719 139.262 46.4719L119.765 0C119.765 0 88.7763 9.24269 74.1625 25.5117C59.5486 41.7808 28.7843 49.4824 28.7843 49.4824Z" fill="#8DD070"/>
<path opacity="0.1" d="M28.7843 49.4824C28.7843 49.4824 32.8356 65.1572 36.581 69.3975C40.3265 73.6379 47.4398 95.577 47.4398 95.577C47.4398 95.577 72.8564 89.2297 88.1921 76.124C103.528 63.0182 139.262 46.4719 139.262 46.4719L119.765 0C119.765 0 88.7763 9.24269 74.1625 25.5117C59.5486 41.7808 28.7843 49.4824 28.7843 49.4824Z" fill="black"/>
<path d="M35.7808 53.1115C35.7808 53.1115 38.5323 66.2719 41.5879 69.6484C44.6436 73.0248 49.7512 91.3404 49.7512 91.3404C49.7512 91.3404 72.2146 84.1386 86.2314 71.8402C100.248 59.5418 132.216 42.8917 132.216 42.8917L117.537 4.38928C117.537 4.38928 90.0713 14.4563 76.5251 29.4181C62.9789 44.38 35.7808 53.1115 35.7808 53.1115Z" fill="#8DD070"/>
<path opacity="0.1" d="M85.713 63.978C88.7358 62.3191 88.7389 54.7809 85.7199 47.1409C82.7008 39.5008 77.803 34.6521 74.7802 36.3109C71.7573 37.9697 71.7543 45.5079 74.7733 53.148C77.7923 60.788 82.6902 65.6368 85.713 63.978Z" fill="black"/>
<path opacity="0.1" d="M102.551 55.4127V120.489C102.551 121.228 102.428 121.96 102.188 122.643C101.948 123.325 101.596 123.946 101.152 124.468C100.709 124.991 100.182 125.405 99.6027 125.688C99.0232 125.97 98.4022 126.116 97.775 126.116H15.6621C14.3961 126.115 13.182 125.522 12.2869 124.467C11.3918 123.412 10.889 121.981 10.889 120.489V48.8523C13.242 49.8822 13.242 49.8822 15.6621 49.7954H97.775C99.0401 49.7954 100.254 50.3869 101.149 51.44C102.044 52.4931 102.549 53.9219 102.551 55.4127Z" fill="black"/>
<path d="M102.551 56.2409V121.317C102.551 122.809 102.047 124.241 101.152 125.296C100.256 126.351 99.0415 126.944 97.775 126.944H15.6621C14.3961 126.943 13.182 126.35 12.2869 125.295C11.3918 124.24 10.889 122.809 10.889 121.317V49.6786C13.242 50.7066 13.242 50.7066 15.6621 50.6217H97.775C99.0404 50.6217 100.254 51.2134 101.15 52.267C102.045 53.3205 102.549 54.7497 102.551 56.2409Z" fill="#504F60"/>
<path opacity="0.1" d="M102.318 80.3002V101.111H85.1909C82.8696 101.074 80.654 99.962 79.0236 98.0146C77.3931 96.0671 76.479 93.4415 76.479 90.7057C76.479 87.97 77.3931 85.3443 79.0236 83.3969C80.654 81.4495 82.8696 80.337 85.1909 80.3002H102.318Z" fill="black"/>
<path d="M102.552 79.7456V100.561H85.4247C83.1035 100.524 80.8879 99.4112 79.2575 97.4638C77.627 95.5164 76.7129 92.8907 76.7129 90.155C76.7129 87.4192 77.627 84.7936 79.2575 82.8461C80.8879 80.8987 83.1035 79.7862 85.4247 79.7494L102.552 79.7456Z" fill="#33323D"/>
<path opacity="0.1" d="M86.2457 94.764C88.1472 94.764 89.6887 92.9475 89.6887 90.7066C89.6887 88.4658 88.1472 86.6493 86.2457 86.6493C84.3442 86.6493 82.8027 88.4658 82.8027 90.7066C82.8027 92.9475 84.3442 94.764 86.2457 94.764Z" fill="black"/>
<path d="M86.4793 94.2132C88.3808 94.2132 89.9223 92.3967 89.9223 90.1559C89.9223 87.915 88.3808 86.0985 86.4793 86.0985C84.5778 86.0985 83.0363 87.915 83.0363 90.1559C83.0363 92.3967 84.5778 94.2132 86.4793 94.2132Z" fill="#F30A1A"/>
<path d="M132.28 79.5664C132.416 81.3037 131.3 82.99 131.625 84.6914C131.696 85.0554 131.829 85.3987 131.877 85.7666C132.011 86.7776 131.501 87.7339 131.012 88.579L126.819 95.8298C126.651 96.1485 126.45 96.4413 126.22 96.7012C125.42 97.5425 124.216 97.4557 123.163 97.7066C122.422 97.8837 121.723 98.248 121.114 98.7742C121.088 98.7999 121.072 98.8361 121.069 98.8754C121.065 98.9147 121.074 98.9541 121.095 98.9855C121.269 99.2648 121.499 99.4883 121.766 99.6356C122.032 99.7829 122.325 99.8492 122.619 99.8287C122.729 100 122.619 100.251 122.458 100.374C122.233 100.562 121.924 100.608 121.879 101.057C121.863 101.213 121.89 101.372 121.956 101.509C122.125 101.814 122.388 102.03 122.689 102.111C124.141 102.634 125.709 101.715 126.796 100.464C127.883 99.2137 128.663 97.6349 129.729 96.3617C130.319 95.6581 130.99 95.0545 131.598 94.3717C132.811 93.0098 133.754 91.3537 134.665 89.6957C134.939 89.1958 135.214 88.6827 135.329 88.1036C135.444 87.5246 135.39 86.9398 135.52 86.3796C135.689 85.644 136.146 85.0592 136.525 84.4424C137.269 83.2352 137.765 81.7582 137.668 80.2719C137.57 78.7855 136.787 77.3161 135.597 76.8106C135.227 76.6359 134.82 76.6068 134.436 76.7276C133.948 76.9049 133.588 77.3802 133.255 77.8348L132.454 78.9194C132.255 79.1574 132.097 79.4394 131.99 79.7494C131.939 79.905 131.927 80.0747 131.955 80.2383C131.984 80.4019 132.051 80.5523 132.15 80.6718" fill="#FBBEBE"/>
<path opacity="0.05" d="M132.28 79.5664C132.416 81.3037 131.3 82.99 131.625 84.6914C131.696 85.0554 131.829 85.3987 131.877 85.7666C132.011 86.7776 131.501 87.7339 131.012 88.579L126.819 95.8298C126.651 96.1485 126.45 96.4413 126.22 96.7012C125.42 97.5425 124.216 97.4557 123.163 97.7066C122.422 97.8837 121.723 98.248 121.114 98.7742C121.088 98.7999 121.072 98.8361 121.069 98.8754C121.065 98.9147 121.074 98.9541 121.095 98.9855C121.269 99.2648 121.499 99.4883 121.766 99.6356C122.032 99.7829 122.325 99.8492 122.619 99.8287C122.729 100 122.619 100.251 122.458 100.374C122.233 100.562 121.924 100.608 121.879 101.057C121.863 101.213 121.89 101.372 121.956 101.509C122.125 101.814 122.388 102.03 122.689 102.111C124.141 102.634 125.709 101.715 126.796 100.464C127.883 99.2137 128.663 97.6349 129.729 96.3617C130.319 95.6581 130.99 95.0545 131.598 94.3717C132.811 93.0098 133.754 91.3537 134.665 89.6957C134.939 89.1958 135.214 88.6827 135.329 88.1036C135.444 87.5246 135.39 86.9398 135.52 86.3796C135.689 85.644 136.146 85.0592 136.525 84.4424C137.269 83.2352 137.765 81.7582 137.668 80.2719C137.57 78.7855 136.787 77.3161 135.597 76.8106C135.227 76.6359 134.82 76.6068 134.436 76.7276C133.948 76.9049 133.588 77.3802 133.255 77.8348L132.454 78.9194C132.255 79.1574 132.097 79.4394 131.99 79.7494C131.939 79.905 131.927 80.0747 131.955 80.2383C131.984 80.4019 132.051 80.5523 132.15 80.6718" fill="black"/>
<path d="M135.454 124.29C134.539 124.948 133.397 124.988 132.333 124.835C132.162 124.81 131.958 124.795 131.853 124.952C131.693 125.178 131.881 125.518 132.077 125.693C132.705 126.249 133.442 126.606 134.22 126.732C134.915 126.848 135.615 126.903 136.317 126.897C138.238 126.936 140.158 126.974 142.049 126.649C142.161 126.639 142.27 126.602 142.369 126.54C142.491 126.439 142.575 126.287 142.606 126.116C142.735 125.535 142.486 124.912 142.108 124.509C141.73 124.105 141.245 123.88 140.771 123.664L139.107 122.9C138.716 122.72 138.09 122.245 137.666 122.283C136.869 122.351 136.115 123.833 135.454 124.29Z" fill="#3F3D56"/>
<path opacity="0.05" d="M135.454 124.29C134.539 124.948 133.397 124.988 132.333 124.835C132.162 124.81 131.958 124.795 131.853 124.952C131.693 125.178 131.881 125.518 132.077 125.693C132.705 126.249 133.442 126.606 134.22 126.732C134.915 126.848 135.615 126.903 136.317 126.897C138.238 126.936 140.158 126.974 142.049 126.649C142.161 126.639 142.27 126.602 142.369 126.54C142.491 126.439 142.575 126.287 142.606 126.116C142.735 125.535 142.486 124.912 142.108 124.509C141.73 124.105 141.245 123.88 140.771 123.664L139.107 122.9C138.716 122.72 138.09 122.245 137.666 122.283C136.869 122.351 136.115 123.833 135.454 124.29Z" fill="black"/>
<path d="M136.621 98.2479C135.928 99.3344 135.211 100.589 135.382 101.934C135.475 102.658 135.819 103.297 136.072 103.967C136.415 104.876 136.594 105.853 136.77 106.827C137.029 108.249 137.29 109.675 137.449 111.12C137.63 112.751 136.78 117.473 136.701 119.116C136.682 119.512 136.642 119.94 136.408 120.225C136.317 120.338 136.195 120.429 136.154 120.576C136.129 120.717 136.149 120.865 136.21 120.991C136.6 122.028 137.399 122.801 138.291 123.243C139.182 123.684 141.332 124.446 142.303 124.486C142.432 124.502 142.561 124.482 142.681 124.427C142.81 124.334 142.912 124.197 142.973 124.033C143.669 122.464 143 116.884 143.009 115.113C143.019 113.636 143.315 112.169 143.261 110.694C143.216 109.509 142.941 108.351 142.849 107.17C142.689 105.235 142.99 103.29 143.293 101.377C143.523 99.9097 143.755 98.4422 144.051 96.9936C144.232 96.1089 144.442 95.2167 144.852 94.449C145.172 93.8397 145.622 93.3305 145.995 92.7514C147.03 91.152 147.49 89.1371 147.275 87.1416C147.253 86.953 144.874 87.8527 144.664 87.9603C143.809 88.3872 143.022 88.9837 142.337 89.7239C141.786 90.3426 141.353 91.1688 140.871 91.8611C140.189 92.8407 139.516 93.8272 138.851 94.8206C138.092 95.9561 137.349 97.0986 136.621 98.2479Z" fill="#464353"/>
<path opacity="0.05" d="M136.621 98.1819C135.928 99.2684 135.211 100.525 135.382 101.868C135.475 102.594 135.819 103.233 136.072 103.903C136.415 104.81 136.594 105.789 136.77 106.761C137.029 108.185 137.29 109.611 137.449 111.054C137.63 112.687 136.78 117.407 136.701 119.05C136.682 119.446 136.642 119.876 136.408 120.161C136.317 120.272 136.195 120.362 136.154 120.51C136.129 120.651 136.149 120.799 136.21 120.925C136.6 121.964 137.399 122.735 138.291 123.188C139.182 123.641 141.332 124.035 142.303 124.073C142.432 124.089 142.561 124.069 142.681 124.014C142.811 123.923 142.913 123.785 142.973 123.622C143.669 122.053 143 116.831 143.009 115.058C143.019 113.579 143.315 112.114 143.261 110.637C143.216 109.452 142.941 108.294 142.849 107.115C142.689 105.178 142.99 103.233 143.293 101.321C143.523 99.855 143.755 98.3875 144.051 96.9369C144.232 96.0523 144.442 95.1601 144.852 94.3924C145.172 93.7831 145.622 93.2738 145.995 92.6947C147.03 91.0956 147.49 89.0805 147.275 87.085C147.253 86.8964 144.874 87.7961 144.664 87.9036C143.809 88.3319 143.022 88.929 142.337 89.6692C141.786 90.286 141.353 91.1122 140.871 91.8044C140.189 92.784 139.516 93.7712 138.851 94.7659C138.092 95.8926 137.349 97.0313 136.621 98.1819Z" fill="black"/>
<path d="M128.909 74.3188C131.055 74.3188 132.794 72.2692 132.794 69.7408C132.794 67.2125 131.055 65.1628 128.909 65.1628C126.764 65.1628 125.025 67.2125 125.025 69.7408C125.025 72.2692 126.764 74.3188 128.909 74.3188Z" fill="#FBBEBE"/>
<path d="M132.408 69.5484C132.767 70.2231 133.238 70.8056 133.792 71.2613C134.346 71.7169 134.972 72.0364 135.634 72.2005L135.341 73.4549C134.835 75.609 134.267 77.8876 132.855 79.3815C133.015 78.6515 132.81 77.8725 132.461 77.2387C132.112 76.6049 131.622 76.107 131.142 75.6146L128.906 73.3323C128.841 73.2704 128.787 73.1949 128.746 73.1097C128.691 72.9488 128.691 72.7689 128.746 72.6079C129.031 71.563 129.844 70.9103 130.507 70.2048C130.839 69.84 131.136 69.4326 131.392 68.9901C131.838 68.2394 132.115 68.9939 132.408 69.5484Z" fill="#FBBEBE"/>
<path d="M123.792 65.1384L123.704 64.2782C124.317 64.4669 124.899 63.8519 125.292 63.2163C125.684 62.5806 126.047 61.8317 126.644 61.5658C127.369 61.2451 128.138 61.7544 128.831 62.1845C129.607 62.6919 130.458 63.0185 131.339 63.1465C131.479 63.152 131.619 63.1786 131.753 63.2257C132.205 63.4143 132.419 64.0821 132.485 64.6875C132.551 65.293 132.533 65.9363 132.755 66.4757C132.916 66.885 133.213 67.1887 133.396 67.5924C133.876 68.6751 133.412 70.1558 133.913 71.2178L132.667 69.8729C132.554 69.7503 132.394 69.622 132.267 69.7258C132.168 69.8088 132.16 69.9879 132.12 70.1313C132 70.5501 131.555 70.6746 131.233 70.5086C130.912 70.3426 130.676 69.9823 130.433 69.6541C129.882 68.8883 129.226 68.2149 128.458 67.8885C128.121 67.7402 127.761 67.6779 127.402 67.7059C127.044 67.7338 126.694 67.8514 126.377 68.0508C125.796 68.4374 125.37 69.3391 124.658 69.3711C123.681 69.4145 123.275 67.2717 122.823 66.4248C122.989 66.2783 123.105 66.068 123.152 65.8308C123.198 65.5935 123.173 65.3444 123.08 65.127C123.145 65.095 123.777 65.0063 123.792 65.1384Z" fill="#464353"/>
<path d="M75.7421 38.3742C75.43 38.7013 75.1415 39.0584 74.8794 39.4418C74.6156 39.8305 74.4752 40.3155 74.4824 40.8131C74.4838 40.9574 74.523 41.0977 74.5945 41.2149C74.631 41.2709 74.6815 41.3122 74.7389 41.3328C74.7963 41.3534 74.8577 41.3524 74.9146 41.3299C74.9789 41.2913 75.034 41.2342 75.0747 41.1639C75.2439 40.9244 75.4234 40.6952 75.6125 40.4773C75.6813 40.3962 75.7726 40.3114 75.8654 40.3415C75.907 40.3589 75.9444 40.3881 75.9742 40.4264C76.0819 40.5361 76.1603 40.6803 76.1999 40.8414C76.256 41.13 76.1135 41.4186 75.9518 41.6449C75.7902 41.8713 75.5997 42.0882 75.5341 42.373C75.5092 42.4483 75.5092 42.5317 75.5341 42.6069C75.565 42.6613 75.6083 42.7045 75.6589 42.7314C75.8881 42.8801 76.1423 42.9677 76.4034 42.9879C76.6645 43.0081 76.9262 42.9605 77.1699 42.8484C77.4901 42.6956 77.775 42.4334 78.1047 42.2976C78.2475 42.2515 78.3859 42.1883 78.5177 42.109C78.612 42.035 78.6929 41.9397 78.7559 41.8287C78.8188 41.7176 78.8624 41.593 78.8842 41.462C78.9258 41.2002 78.9339 40.9325 78.9082 40.6679C78.8683 39.6432 78.6822 38.6337 78.3576 37.6819C78.3388 37.6205 78.3068 37.5659 78.2648 37.5235C78.2166 37.4889 78.1611 37.4712 78.1047 37.4725C77.6949 37.4216 77.0227 37.1745 76.6273 37.3537C76.489 37.443 76.3697 37.5681 76.2784 37.7196C76.2047 37.8158 75.7421 38.2478 75.7421 38.3742Z" fill="#A1616A"/>
<path d="M75.6128 37.9478C75.6128 37.4876 75.1326 36.3766 75.8961 36.303C75.8961 35.8107 75.3054 35.5051 75.4159 34.9826C75.4511 34.8091 75.5759 34.6676 75.5903 34.4903C75.6384 33.9867 74.8669 33.7131 74.9949 33.2303C75.0429 33.0416 75.2126 32.9322 75.2494 32.7455C75.3358 32.3098 74.6748 32.1155 74.662 31.6684C74.662 31.5175 74.734 31.3761 74.7276 31.2252C74.7276 31.0365 74.5883 30.8932 74.5115 30.7291C74.3114 30.3084 74.4091 29.6577 74.0441 29.4408C74.2858 29.4653 74.3643 29.0428 74.265 28.7843C74.1658 28.5259 73.9625 28.3015 73.9609 28.0147C73.9729 27.9108 73.9729 27.8055 73.9609 27.7016C73.8937 27.4262 73.5111 27.4036 73.4471 27.1357C73.4388 27.0329 73.4361 26.9296 73.4391 26.8264C73.4135 26.6133 73.2278 26.4774 73.0533 26.4171C72.8721 26.3808 72.6977 26.3074 72.5379 26.2002C72.4259 26.1002 72.2962 25.9342 72.1762 26.0115C72.1314 26.0436 72.109 26.104 72.0753 26.1492C71.9313 26.3473 71.656 26.2605 71.4751 26.1153C70.9405 25.6871 70.6748 24.9194 70.5611 24.1705C70.4475 23.4217 70.4507 22.6483 70.3082 21.907C70.2648 21.676 70.207 21.449 70.1354 21.228C70.0745 21.0393 69.8793 20.7432 69.8665 20.5527C69.8376 20.1188 70.5996 20.415 70.8893 20.4584C71.1705 20.4907 71.4487 20.5539 71.72 20.647C72.0096 20.7759 72.2933 20.9226 72.5699 21.0865C73.7256 21.6882 75.1214 21.7618 76.0497 22.7728C76.3555 23.1048 76.6132 23.5405 77.0101 23.6914C77.1922 23.7326 77.3718 23.7874 77.5479 23.8555C77.9881 24.0989 78.0569 24.7873 78.297 25.2853C78.3725 25.4168 78.4384 25.5556 78.4939 25.7003C78.5402 25.8709 78.5618 26.0494 78.5579 26.2285L78.5915 27.5356C78.646 29.7256 78.7004 31.9212 78.5019 34.0979C78.4379 34.8166 78.3419 35.556 78.5227 36.2464C78.5707 36.435 78.638 36.6123 78.6828 36.8028C78.7224 37.0262 78.7427 37.2537 78.7436 37.4819L78.7692 38.3288C78.7781 38.3947 78.7655 38.4621 78.734 38.5175C78.7072 38.5431 78.676 38.5613 78.6424 38.5707C78.6089 38.5802 78.574 38.5807 78.5403 38.5722C77.5399 38.4665 76.5283 37.8026 75.5839 38.2043" fill="#464353"/>
<path d="M121.266 103.024C127.804 103.024 133.105 102.121 133.105 101.008C133.105 99.8939 127.804 98.9911 121.266 98.9911C114.728 98.9911 109.428 99.8939 109.428 101.008C109.428 102.121 114.728 103.024 121.266 103.024Z" fill="#504F60"/>
<path d="M131.451 101.106C131.243 100.055 131.113 99.1326 131.113 99.1326C131.113 99.1326 131.161 97.9895 130.726 97.1312V96.8445V94.7319C130.85 94.3483 131.001 93.9779 131.179 93.6247C131.499 92.9607 131.179 90.5274 131.179 90.5274C131.179 90.5274 129.983 87.0963 130.273 84.9196C130.562 82.7428 127.817 75.2544 127.817 75.2544C127.834 74.5322 127.921 73.8145 128.075 73.1153C128.104 72.9683 128.116 72.8172 128.11 72.6664C128.11 72.6475 128.11 72.6306 128.11 72.6117C128.11 72.5928 128.11 72.623 128.11 72.6287C128.069 71.1932 127.105 68.5034 127.105 68.5034L127.235 63.3766C127.235 63.3766 127.849 60.3585 126.847 56.2936C126.497 54.877 126.273 53.7434 126.13 52.8682C126.114 52.7701 126.098 52.6796 126.085 52.5834C128.149 52.2061 129.725 51.9043 129.725 51.9043C129.725 51.9043 128.528 46.0022 127.72 44.9685C126.911 43.9348 126.265 40.6886 126.265 40.6886C126.265 40.6886 125.844 36.5218 126.524 35.3033C127.204 34.0848 127.3 31.9835 127.3 31.9835C127.3 31.9835 128.851 30.6631 129.047 30.0651C129.242 29.4672 129.564 28.1468 129.564 27.447C129.564 26.7472 129.37 26.1266 129.434 25.7494C129.498 25.3721 128.981 23.9782 129.24 23.3142C129.307 23.1102 129.342 22.8935 129.343 22.6747C129.343 22.6685 129.343 22.6622 129.343 22.6559C129.345 22.0749 129.3 21.4949 129.207 20.9243C128.758 20.4778 128.234 20.1481 127.67 19.9566L127.636 19.7982L127.548 19.3832C127.499 19.3449 127.449 19.3097 127.396 19.2776V19.1267L127.382 18.5269L127.625 17.1801C128.105 14.8373 125.45 14.4884 125.45 14.4884C125.289 14.129 125.021 13.8523 124.698 13.7112C124.165 13.4905 124.61 17.2348 124.858 17.4837C125.045 17.6724 125.624 18.8381 125.905 19.4153L125.949 19.5096C125.906 19.556 125.865 19.6065 125.828 19.6605L125.929 20.4735L125.945 20.598C125.769 20.8555 125.626 21.1421 125.52 21.4487C125.52 21.4487 126.001 22.0749 125.909 22.7691C125.818 23.4632 126.058 24.3441 126.069 24.3912C126.041 24.3516 125.7 23.9178 125.359 24.0234C125.018 24.1291 124.065 24.4667 124.065 24.4667C124.065 24.4667 123.355 24.6138 123.425 24.7987C123.496 24.9835 122.945 25.7946 122.945 25.7946L121.034 23.6594C121.015 23.5952 120.994 23.5311 120.978 23.4707C120.9 23.1629 120.846 22.8472 120.818 22.5276C121.026 22.4693 121.23 22.393 121.429 22.2994C121.63 22.2181 121.811 22.0809 121.957 21.8995C122.151 21.6298 122.188 21.2638 122.266 20.9281C122.417 20.2716 122.746 19.6888 122.975 19.0644C123.363 18.0094 123.488 16.8462 123.336 15.7107C123.306 15.3607 123.206 15.0243 123.043 14.7298C122.73 14.2243 122.164 14.0187 121.752 13.615C121.341 13.2114 121.075 12.5946 120.595 12.2946C120.161 12.0211 119.635 12.0532 119.145 12.1475C118.188 12.3334 117.269 12.7274 116.435 13.3094C116.157 13.4981 115.849 13.7301 115.529 13.6603C115.254 13.6018 115.049 13.3434 114.876 13.0944C114.878 13.0841 114.881 13.074 114.884 13.0642C114.876 13.055 114.869 13.0449 114.863 13.0341C114.661 13.5638 114.559 14.1394 114.566 14.7204C114.566 14.8109 114.566 14.909 114.575 14.9901V15.0844C114.575 15.1108 114.575 15.1372 114.575 15.1618C114.575 15.202 114.57 15.242 114.561 15.2806C114.521 15.396 114.459 15.4996 114.382 15.5843C114.323 15.6629 114.269 15.7468 114.221 15.8352C114.221 15.805 114.237 15.7748 114.247 15.7427C114.125 15.9528 114.056 16.1994 114.049 16.4538C114.04 16.6391 114.091 16.8213 114.193 16.9631C114.288 17.0728 114.393 17.1713 114.505 17.2574C114.467 17.5064 114.447 17.7589 114.447 18.0119C114.451 18.762 114.619 19.4983 114.934 20.1496C115.25 20.8009 115.703 21.3451 116.249 21.7297C116.272 21.792 116.293 21.8561 116.314 21.9184C116.558 22.6729 116.742 23.5594 116.661 24.3705C116.661 24.429 116.646 24.4893 116.638 24.5478C116.63 24.6063 116.59 24.6101 116.57 24.6421C116.57 24.6421 113.412 24.6798 112.669 23.8876C111.926 23.0954 110.793 25.8248 110.793 25.8248C110.793 25.8248 109.661 26.0832 109.434 25.8248C109.207 25.5664 107.883 25.789 107.883 25.789C107.341 25.2206 106.635 24.9171 105.909 24.9401C105.47 24.5465 104.985 24.2289 104.469 23.997L104.434 23.9819C104.206 23.8841 103.962 23.848 103.721 23.8763C103.721 23.8763 102.169 22.3673 101.716 21.5524C101.263 20.7376 99.1066 17.729 99.097 17.7158V17.5705L99.073 17.1329C99.0089 17.1447 98.9442 17.1511 98.8794 17.1518C98.8682 17.1084 98.8521 17.0575 98.8361 16.999C98.7119 16.5721 98.5588 16.1577 98.3784 15.7597C98.3784 15.7597 98.3784 15.207 98.5144 15.0674C98.6505 14.9279 98.4584 12.9001 98.4584 12.9001C98.4584 12.9001 97.0594 9.04649 95.8061 11.923C95.8061 11.923 93.4372 13.7848 95.4252 15.954C95.4252 15.954 96.2255 16.4067 96.3311 16.7651C96.4048 16.9971 96.6737 17.6479 96.8545 18.0855L96.9362 18.2741L96.9138 18.2967L96.9426 18.6589L96.9554 18.7985C96.5808 19.0493 96.3263 19.2983 96.3888 19.4851C96.499 19.8046 96.5749 20.1392 96.6144 20.481C96.6144 20.481 99.3644 24.5403 99.7197 26.2737C99.7197 26.2737 107.094 31.4383 109.519 31.8062L109.09 34.3809C109.027 35.0796 108.995 35.7815 108.994 36.4841C109.026 37.0368 108.702 39.5455 108.702 39.5455C108.702 39.5455 108.282 43.235 107.926 43.7519C107.571 44.2687 107.635 46.4813 107.635 46.4813C107.551 47.5405 107.39 48.5893 107.155 49.6163C106.799 51.0177 107.057 52.7531 107.057 52.7531C107.057 52.7531 105.829 56.0729 108.771 53.8226C108.771 53.8226 110.212 53.717 111.88 53.6491C111.88 53.7132 111.88 53.7792 111.88 53.8377C111.88 54.0905 111.88 54.364 111.869 54.6507C111.846 56.552 111.837 59.1777 111.91 61.1545C112.04 64.6592 112.946 71.595 112.946 71.595V75.0865C112.887 75.4139 112.858 75.7478 112.859 76.0824C112.84 77.3109 113.118 78.5205 113.66 79.5701L113.887 81.894C113.887 81.894 114.418 83.4257 114.428 84.3462C114.426 84.4203 114.418 84.4942 114.406 84.5668C114.385 84.684 114.376 84.8037 114.38 84.9233C114.35 85.9797 114.889 88.5073 114.889 88.5073C114.889 88.5073 114.921 91.0518 115.244 91.2008C115.521 91.3272 114.875 92.6665 114.682 93.0513C114.677 93.0277 114.674 93.0037 114.671 92.9796L114.631 93.055C114.565 93.261 114.53 93.4796 114.53 93.7001C114.512 93.8739 114.536 94.0501 114.6 94.2084C114.663 94.3667 114.763 94.5005 114.889 94.5942C115.504 95.0375 115.833 95.4053 115.312 95.5524C115.12 95.5876 114.929 95.6348 114.742 95.6939C114.742 95.6656 114.722 95.6354 114.714 95.609C114.641 95.6429 114.579 95.7057 114.541 95.7869C114.502 95.868 114.488 95.9624 114.502 96.0542C114.507 96.3534 114.572 96.6469 114.692 96.9106C115.209 98.2762 115.568 98.7968 115.568 98.7968L115.816 98.7648C115.779 98.8765 115.731 98.9823 115.672 99.0798C115.577 99.238 115.452 99.3673 115.307 99.457C115.171 99.5526 115.02 99.6137 114.863 99.6362C114.688 99.6429 114.516 99.6931 114.358 99.7834C114.2 99.8738 114.061 100.002 113.948 100.161C113.628 100.653 113.423 101.323 114.06 101.911L116.373 102.854C116.373 102.854 120.352 103.463 120.141 102.411C119.929 101.358 119.801 100.438 119.801 100.438C119.818 99.7952 119.709 99.1567 119.481 98.5724C119.439 98.477 119.392 98.385 119.34 98.297L119.481 98.28C119.481 98.28 119.773 95.9542 120.16 95.5128C120.249 95.411 120.27 95.3242 120.249 95.2714C120.29 95.145 120.187 95.0714 120.057 95.0281L120.029 95.1205C119.902 95.0879 119.773 95.0709 119.643 95.0696C119.643 95.0696 119.513 93.8529 119.934 93.4097C119.968 93.3591 119.993 93.3009 120.007 93.2386C120.021 93.1763 120.024 93.1112 120.016 93.0475C120.019 92.8805 120.004 92.7138 119.971 92.5514C119.967 92.5619 119.962 92.5719 119.957 92.5816C119.745 91.4762 119.028 89.7201 119.028 89.7201C119.028 89.7201 118.996 88.6148 119.256 88.1715C119.515 87.7282 119.222 82.1581 119.222 82.1581C119.222 82.1581 119.32 79.4664 119.028 78.212C118.737 76.9577 119.384 75.4807 119.384 75.4807C119.384 75.4807 119.384 75.4524 119.384 75.4015V75.3826L119.347 74.9582C119.346 74.967 119.346 74.9759 119.347 74.9846C119.281 74.2716 119.158 72.9795 119.067 72.3835C118.937 71.5346 119.1 67.4792 119.1 67.4792L119.681 65.7438L120.717 68.7335L121.817 72.7173C121.817 72.7173 122.361 73.5586 122.374 74.415C122.374 74.4565 122.374 74.498 122.374 74.5395C122.365 74.6277 122.36 74.7165 122.361 74.8054C122.341 75.3088 122.458 75.8063 122.695 76.2258C122.695 76.2258 122.987 78.112 123.44 78.5855C123.893 79.059 123.893 79.987 123.893 79.987C123.893 79.987 124.442 82.7183 124.693 83.1936C124.911 83.5973 124.922 84.7027 124.92 85.0478C124.92 85.1101 124.92 85.1459 124.92 85.1459C124.92 85.1459 124.997 86.123 124.994 86.9417C124.994 87.0435 124.994 87.1416 124.994 87.234C124.995 87.2271 124.995 87.2202 124.994 87.2133C124.994 87.4369 124.971 87.6598 124.927 87.8772L124.917 87.915C124.917 87.8678 124.917 87.8225 124.928 87.7773C124.816 88.3332 124.762 88.9034 124.768 89.4749C124.754 90.4558 124.88 91.6177 125.384 92.3043C126.258 93.4851 126.807 93.338 126.807 93.338C126.807 93.338 126.388 94.813 125.869 95.1092C125.85 95.1201 125.831 95.134 125.815 95.1507C125.815 95.1205 125.805 95.0922 125.802 95.0639C125.744 95.1375 125.7 95.2245 125.673 95.3193C125.645 95.4142 125.635 95.5148 125.642 95.6147C125.605 96.2636 125.953 97.3123 126.282 97.8009C126.405 97.9422 126.555 98.0458 126.719 98.1027C126.693 98.1244 126.666 98.1439 126.638 98.1611C126.58 98.1984 126.521 98.2318 126.46 98.2611C126.376 98.3033 126.287 98.3306 126.196 98.3422C126.02 98.3478 125.848 98.3974 125.69 98.4878C125.532 98.5783 125.392 98.7074 125.28 98.8666C124.96 99.357 124.755 100.027 125.392 100.615L127.705 101.558C127.705 101.558 131.659 102.156 131.451 101.106Z" fill="url(#paint0_linear)"/>
<path d="M116.259 102.849L114.018 101.905C113.401 101.317 113.597 100.647 113.91 100.155C114.017 99.9979 114.152 99.8699 114.305 99.7794C114.458 99.689 114.625 99.6382 114.796 99.6306C114.948 99.6078 115.094 99.5466 115.224 99.4514C115.366 99.3604 115.487 99.2311 115.579 99.0741C115.742 98.7683 115.831 98.415 115.834 98.0536C115.834 98.0536 118.292 97.2048 118.964 98.0536C119.084 98.2073 119.185 98.3808 119.262 98.5686C119.485 99.1545 119.595 99.7919 119.582 100.434C119.582 100.434 119.707 101.355 119.91 102.407C120.114 103.46 116.259 102.849 116.259 102.849Z" fill="#2D293D"/>
<path d="M127.214 101.547L124.973 100.604C124.355 100.015 124.552 99.3457 124.864 98.8553C124.971 98.6977 125.105 98.5692 125.258 98.4787C125.411 98.3881 125.579 98.3377 125.75 98.3309C125.838 98.3202 125.925 98.2928 126.006 98.2498C126.065 98.2204 126.123 98.187 126.179 98.1498C126.804 97.7443 126.788 96.7483 126.788 96.7483C126.788 96.7483 129.245 95.8995 129.919 96.7483C130.01 96.8633 130.088 96.9899 130.155 97.1256C130.576 97.9839 130.529 99.1288 130.529 99.1288C130.529 99.1288 130.654 100.051 130.849 101.102C131.045 102.152 127.214 101.547 127.214 101.547Z" fill="#2D293D"/>
<path opacity="0.1" d="M118.966 98.0518C119.086 98.2055 119.186 98.379 119.264 98.5668L115.582 99.0704C115.746 98.7646 115.834 98.4113 115.837 98.0499C115.837 98.0499 118.294 97.203 118.966 98.0518Z" fill="black"/>
<path opacity="0.1" d="M130.158 97.1294V97.9424C129.585 99.0534 126.814 98.81 126.009 98.2536C126.068 98.2241 126.126 98.1908 126.182 98.1536C126.808 97.7481 126.792 96.7521 126.792 96.7521C126.792 96.7521 129.249 95.9033 129.922 96.7521C130.013 96.8671 130.091 96.9936 130.158 97.1294Z" fill="black"/>
<path d="M130.595 93.6247C130.423 93.9789 130.277 94.3493 130.158 94.7319V97.6462C129.53 98.8628 126.276 98.4573 125.836 97.7933C125.396 97.1294 124.936 95.4015 125.431 95.1016C125.925 94.8017 126.338 93.3304 126.338 93.3304C126.338 93.3304 125.805 93.4775 124.96 92.2967C124.115 91.1159 124.366 88.4978 124.523 87.8716C124.68 87.2453 124.523 85.1421 124.523 85.1421C124.523 85.1421 124.555 83.6652 124.306 83.1861C124.056 82.707 123.523 79.9794 123.523 79.9794C123.523 79.9794 123.523 79.0571 123.084 78.5779C122.646 78.0988 122.364 76.2163 122.364 76.2163C122.108 75.7459 121.997 75.1854 122.052 74.63C122.145 73.7076 121.519 72.7117 121.519 72.7117L120.454 68.726L119.452 65.7381L118.889 67.4716C118.889 67.4716 118.729 71.529 118.859 72.3759C118.988 73.2228 119.179 75.475 119.179 75.475C119.179 75.475 118.553 76.9501 118.835 78.2045C119.116 79.4588 119.014 82.1543 119.014 82.1543C119.014 82.1543 119.296 87.7226 119.044 88.1658C118.793 88.6091 118.825 89.7163 118.825 89.7163C118.825 89.7163 120.106 92.9607 119.702 93.404C119.299 93.8473 119.42 95.0639 119.42 95.0639C119.42 95.0639 120.296 95.0639 119.921 95.5072C119.547 95.9504 119.264 98.2743 119.264 98.2743L115.478 98.7968C115.478 98.7968 115.132 98.2819 114.631 96.9105C114.13 95.5392 114.724 95.6939 115.228 95.5449C115.733 95.3959 115.414 95.0299 114.819 94.5867C114.223 94.1434 114.569 93.1474 114.569 93.1474C114.569 93.1474 115.476 91.3404 115.163 91.1933C114.849 91.0462 114.819 88.4997 114.819 88.4997C114.819 88.4997 114.193 85.4817 114.35 84.663C114.506 83.8444 113.849 81.8978 113.849 81.8978L113.629 79.5739C112.96 78.2552 112.715 76.6963 112.941 75.1827V71.5988C112.941 71.5988 112.064 64.6649 111.939 61.1602C111.859 58.9155 111.881 55.8522 111.907 53.9415C111.923 52.8701 111.939 52.1589 111.939 52.1589L125.461 50.499C125.461 50.499 125.448 51.2347 125.706 52.8663C125.845 53.7415 126.062 54.8752 126.401 56.2917C127.371 60.3491 126.777 63.3728 126.777 63.3728L126.651 68.5015C126.651 68.5015 127.84 71.9308 127.59 73.1116C127.439 73.8127 127.354 74.5313 127.337 75.2544C127.337 75.2544 129.998 82.7428 129.716 84.9196C129.434 87.0963 130.591 90.5274 130.591 90.5274C130.591 90.5274 130.908 92.9607 130.595 93.6247Z" fill="#464353"/>
<path opacity="0.05" d="M122.863 74.4075L126.98 73.7605C126.98 73.7605 124.648 76.5654 122.863 74.4075Z" fill="black"/>
<path opacity="0.1" d="M126.385 69.0203C126.385 69.0203 126.526 70.7368 125.634 71.3819C125.634 71.3819 127.23 71.0876 126.385 69.0203Z" fill="black"/>
<path opacity="0.1" d="M126.132 63.5614C126.132 63.5614 122.691 66.9001 121.439 66.6228C120.187 66.3455 126.132 63.5614 126.132 63.5614Z" fill="black"/>
<path opacity="0.1" d="M117.761 75.973C117.761 75.973 115.147 76.6728 115.068 77.9102C114.99 79.1476 117.761 75.973 117.761 75.973Z" fill="black"/>
<path opacity="0.05" d="M118.335 91.3574C118.335 91.3574 114.643 92.1685 115.691 92.7212C116.739 93.2739 118.462 93.7171 118.462 93.7171C118.462 93.7171 119.654 93.7907 118.335 91.3574Z" fill="black"/>
<g opacity="0.05">
<path opacity="0.05" d="M114.945 93.6002C114.852 93.5319 114.774 93.4397 114.715 93.3307C114.657 93.2216 114.62 93.0984 114.607 92.9702L114.569 93.0476C114.569 93.0476 114.225 94.0435 114.82 94.4849C114.888 94.5358 114.953 94.5867 115.012 94.6358C115.123 94.6113 115.241 94.5924 115.355 94.5585C115.859 94.4113 115.541 94.0435 114.945 93.6002Z" fill="black"/>
<path opacity="0.05" d="M119.702 93.3041C119.805 93.1947 119.801 92.9117 119.739 92.5496C119.579 92.8344 119.533 93.2795 119.529 93.6172C119.568 93.5 119.627 93.3934 119.702 93.3041Z" fill="black"/>
<path opacity="0.05" d="M119.134 74.9526C118.998 75.3889 118.914 75.8454 118.884 76.3089C118.956 75.9887 119.052 75.6768 119.171 75.377L119.134 74.9526Z" fill="black"/>
<path opacity="0.05" d="M127.592 73.0173C127.616 72.8848 127.628 72.7493 127.625 72.6136C127.579 72.889 127.547 73.1437 127.523 73.3681C127.544 73.2531 127.566 73.1437 127.592 73.0173Z" fill="black"/>
<path opacity="0.05" d="M119.046 88.0678C119.097 87.9773 119.126 87.6717 119.139 87.2473C119.023 87.5757 118.962 87.9272 118.958 88.2829C118.98 88.2073 119.01 88.1351 119.046 88.0678Z" fill="black"/>
<path opacity="0.05" d="M119.814 95.0244C119.62 95.7643 119.476 96.5212 119.384 97.2879L115.598 97.8029C115.598 97.8029 115.252 97.2879 114.751 95.9166C114.711 95.8107 114.675 95.7024 114.644 95.5922C114.417 95.7148 114.324 95.9921 114.625 96.8013C115.126 98.1669 115.473 98.6875 115.473 98.6875L119.259 98.1707C119.259 98.1707 119.541 95.8468 119.915 95.4036C120.107 95.1904 119.989 95.0791 119.814 95.0244Z" fill="black"/>
<path opacity="0.05" d="M114.82 88.3998C114.82 88.3998 114.851 90.9444 115.164 91.0915C115.325 90.6709 115.429 90.271 115.288 90.205C114.968 90.0578 114.944 87.5114 114.944 87.5114C114.944 87.5114 114.318 84.4934 114.475 83.6747C114.631 82.8561 113.974 80.9094 113.974 80.9094L113.754 78.5856C113.085 77.2669 112.84 75.708 113.066 74.1943V70.6104C113.066 70.6104 112.189 63.6765 112.064 60.1719C111.984 57.9272 112.006 54.8639 112.032 52.9531C112.032 52.6079 112.042 52.3024 112.046 52.0439L111.939 52.0571C111.939 52.0571 111.922 52.7664 111.907 53.8397C111.882 55.7505 111.858 58.8137 111.939 61.0565C112.064 64.5612 112.94 71.497 112.94 71.497V75.0809C112.715 76.5942 112.96 78.1522 113.629 79.4702L113.847 81.7941C113.847 81.7941 114.505 83.7483 114.348 84.5613C114.191 85.3742 114.82 88.3998 114.82 88.3998Z" fill="black"/>
<path opacity="0.05" d="M125.964 96.8087C125.656 96.2841 125.451 95.6856 125.364 95.0564C124.978 95.4676 125.421 97.0634 125.844 97.6972C126.281 98.3611 129.537 98.7667 130.166 97.5482V96.8465C129.312 97.833 126.377 97.4369 125.964 96.8087Z" fill="black"/>
<path opacity="0.05" d="M130.721 92.6401C130.549 92.9944 130.403 93.3648 130.283 93.7474V94.2699C130.355 94.0812 130.455 93.8285 130.603 93.5305C130.702 93.24 130.749 92.9285 130.74 92.6156C130.74 92.6156 130.726 92.6326 130.721 92.6401Z" fill="black"/>
<path opacity="0.05" d="M126.156 93.223C126.275 92.9389 126.378 92.6459 126.465 92.3459C126.465 92.3459 125.932 92.4931 125.087 91.3123C124.472 90.454 124.437 88.8318 124.525 87.7717C124.365 88.3999 124.117 91.018 124.962 92.1988C125.514 92.9703 125.932 93.174 126.156 93.223Z" fill="black"/>
<path opacity="0.05" d="M124.523 85.0423C124.579 85.7691 124.6 86.4989 124.586 87.2284C124.602 87.1133 124.623 86.9993 124.65 86.887C124.81 86.2589 124.65 84.1576 124.65 84.1576C124.65 84.1576 124.682 82.6807 124.431 82.2015C124.179 81.7224 123.656 78.9911 123.656 78.9911C123.656 78.9911 123.656 78.0687 123.217 77.5896C122.779 77.1105 122.497 75.228 122.497 75.228C122.238 74.7585 122.125 74.1981 122.177 73.6417C122.271 72.7193 121.646 71.7233 121.646 71.7233L120.581 67.7396L119.579 64.7517L119.014 66.4871C119.014 66.4871 119.014 66.7059 118.995 67.0529L119.453 65.6439L120.455 68.6261L121.519 72.6099C121.519 72.6099 122.145 73.6058 122.05 74.5282C121.999 75.0847 122.112 75.6451 122.371 76.1146C122.371 76.1146 122.652 78.0008 123.091 78.4762C123.529 78.9515 123.528 79.8777 123.528 79.8777C123.528 79.8777 124.061 82.6071 124.311 83.0843C124.56 83.5615 124.523 85.0423 124.523 85.0423Z" fill="black"/>
</g>
<path d="M127.152 17.1744L126.916 18.5212L126.931 19.1211L126.94 19.5624L125.634 19.7209L125.489 19.4021C125.218 18.8249 124.656 17.6517 124.475 17.4706C124.234 17.2329 123.803 13.4868 124.315 13.7094C124.631 13.8529 124.89 14.1291 125.042 14.4846C125.042 14.4846 127.614 14.8317 127.152 17.1744Z" fill="#FFCDD3"/>
<path opacity="0.1" d="M126.94 19.5625L125.634 19.7209L125.489 19.4021C125.664 19.1664 125.904 19.0098 126.166 18.9589C126.429 18.908 126.699 18.966 126.929 19.123L126.94 19.5625Z" fill="black"/>
<path d="M127.27 20.2925L125.548 20.7622L125.511 20.4604L125.413 19.6474C125.413 19.6474 126.095 18.576 127.081 19.3795L127.168 19.7926L127.27 20.2925Z" fill="#F30A1A"/>
<path d="M99.3709 17.3216L97.5318 18.4835L97.3717 18.0761C97.1972 17.6441 96.9363 16.9934 96.8643 16.7557C96.7555 16.3973 95.9887 15.9446 95.9887 15.9446C94.068 13.7773 96.3569 11.9136 96.3569 11.9136C97.5702 9.03709 98.9179 12.8907 98.9179 12.8907C98.9179 12.8907 99.1068 14.9222 98.9739 15.058C98.8411 15.1939 98.8411 15.7503 98.8411 15.7503C99.0164 16.149 99.1646 16.5634 99.2845 16.9896C99.3405 17.1952 99.3709 17.3216 99.3709 17.3216Z" fill="#FFCDD3"/>
<path opacity="0.1" d="M99.371 17.3216L97.5318 18.4835L97.3718 18.0761C97.6311 17.8196 98.5514 16.9444 98.854 16.9802C98.9984 17.0014 99.1442 17.0059 99.2893 16.9934C99.3406 17.1952 99.371 17.3216 99.371 17.3216Z" fill="black"/>
<path d="M99.5585 17.9761L97.492 19.1758L97.4504 18.6533L97.4216 18.2911C97.4216 18.2911 98.6189 17.082 98.9726 17.1292C99.1515 17.1597 99.3332 17.1597 99.512 17.1292L99.536 17.5668L99.5585 17.9761Z" fill="#F30A1A"/>
<path d="M122.143 26.121C122.143 26.121 113.135 27.3188 114.819 26.6737C115.991 26.2228 116.456 25.3533 116.554 24.3724C116.634 23.5557 116.455 22.6748 116.219 21.9203C116.008 21.2509 115.74 20.6083 115.419 20.0019C115.419 20.0019 122.302 15.539 120.927 19.5964C120.715 20.2101 120.583 20.8582 120.536 21.5185C120.495 22.1747 120.555 22.8343 120.714 23.4651C120.974 24.4887 121.468 25.4078 122.143 26.121Z" fill="#FFCDD3"/>
<path opacity="0.1" d="M120.922 19.5908C120.71 20.2045 120.578 20.8526 120.531 21.5129C119.883 22.1561 119.173 22.1127 118.259 22.1127C117.557 22.1127 116.78 22.3127 116.219 21.9147C116.008 21.2453 115.739 20.6027 115.419 19.9963C115.419 19.9963 122.3 15.5334 120.922 19.5908Z" fill="black"/>
<path d="M118.137 22.3956C120.194 22.3956 121.862 20.4304 121.862 18.0063C121.862 15.5821 120.194 13.6169 118.137 13.6169C116.08 13.6169 114.412 15.5821 114.412 18.0063C114.412 20.4304 116.08 22.3956 118.137 22.3956Z" fill="#FFCDD3"/>
<path opacity="0.1" d="M122.143 26.121C122.143 26.121 113.135 27.3188 114.819 26.6737C115.991 26.2229 116.456 25.3533 116.554 24.3725C117.002 23.8066 117.903 23.3859 118.475 23.1671C119.003 22.9578 119.573 22.9466 120.107 23.1351C120.317 23.2096 120.517 23.3188 120.701 23.4595C120.964 24.4869 121.463 25.4082 122.143 26.121Z" fill="black"/>
<path opacity="0.1" d="M127.27 20.2924L125.548 20.7621L125.511 20.4603C125.696 20.1618 125.954 19.9376 126.25 19.8181C126.546 19.6986 126.867 19.6897 127.168 19.7926L127.27 20.2924Z" fill="black"/>
<path opacity="0.1" d="M99.5581 17.9761L97.4917 19.1758L97.4501 18.6533C98.1194 18.2292 98.815 17.8654 99.5309 17.5649L99.5581 17.9761Z" fill="black"/>
<path opacity="0.1" d="M125.706 52.8701C122.215 53.5265 117.253 54.364 116.466 54.081C115.811 53.8472 113.724 53.8717 111.907 53.9452C111.923 52.8738 111.939 52.1627 111.939 52.1627L125.461 50.5028C125.461 50.5028 125.449 51.2384 125.706 52.8701Z" fill="black"/>
<path d="M129.186 51.9043C129.186 51.9043 117.698 54.2282 116.466 53.7905C115.233 53.3529 108.903 53.8264 108.903 53.8264C106.054 56.0767 107.243 52.7569 107.243 52.7569C107.243 52.7569 106.993 51.0234 107.337 49.6219C107.569 48.5929 107.727 47.5431 107.81 46.4832C107.81 46.4832 107.747 44.2687 108.091 43.7518C108.436 43.235 108.844 39.5474 108.844 39.5474C108.844 39.5474 109.156 37.0386 109.125 36.486C109.095 35.9333 109.218 34.3828 109.218 34.3828L109.626 31.8005C107.278 31.4327 100.141 26.2681 100.141 26.2681C99.7969 24.5346 97.1366 20.4772 97.1366 20.4772C97.0979 20.136 97.0242 19.8016 96.9173 19.4813C96.7301 18.8909 99.5472 17.7101 99.5472 17.7101C99.5472 17.7101 101.644 20.7281 102.083 21.5467C102.521 22.3654 104.023 23.8706 104.023 23.8706C104.256 23.8423 104.491 23.8785 104.711 23.9763L104.748 23.9895C105.251 24.2222 105.723 24.5399 106.148 24.9326C106.854 24.9129 107.539 25.2172 108.058 25.7814C108.058 25.7814 109.338 25.5588 109.561 25.8172C109.783 26.0757 110.875 25.8172 110.875 25.8172C110.875 25.8172 111.97 23.0878 112.69 23.8801C113.41 24.6723 116.466 24.6346 116.466 24.6346C116.873 23.997 117.863 23.5405 118.483 23.3142C119.011 23.1057 119.581 23.0945 120.115 23.2821C120.346 23.3631 120.562 23.4908 120.756 23.6594L122.614 25.7984C122.614 25.7984 123.145 24.9854 123.083 24.8024C123.021 24.6195 123.709 24.4705 123.709 24.4705C123.709 24.4705 124.616 24.1385 124.961 24.0272C125.305 23.9159 125.62 24.3554 125.649 24.395C125.638 24.3478 125.402 23.4519 125.489 22.7728C125.575 22.0938 125.113 21.4524 125.113 21.4524C126.207 18.2797 128.68 20.9356 128.68 20.9356C128.68 20.9356 128.962 22.6691 128.712 23.333C128.463 23.997 128.962 25.3985 128.9 25.7682C128.837 26.1379 129.026 26.7642 129.026 27.4658C129.026 28.1675 128.706 29.4936 128.525 30.084C128.344 30.6744 126.835 32.0023 126.835 32.0023C126.835 32.0023 126.74 34.1055 126.083 35.3221C125.425 36.5388 125.838 40.6999 125.838 40.6999C125.838 40.6999 126.464 43.9461 127.246 44.9798C128.029 46.0135 129.186 51.9043 129.186 51.9043Z" fill="#3F3D56"/>
<path opacity="0.1" d="M112.44 27.6319C112.44 27.6319 112.096 26.4153 111.782 26.3115C111.471 26.1765 111.168 26.0164 110.875 25.8324L111.076 25.3778C111.076 25.3778 112.251 25.7551 112.44 26.1644C112.629 26.5737 112.44 27.6319 112.44 27.6319Z" fill="black"/>
<path opacity="0.1" d="M106.148 24.9402C106.086 25.3174 103.299 25.64 103.299 25.64L104.708 23.9763L104.743 23.9914C105.248 24.2254 105.721 24.5451 106.148 24.9402Z" fill="black"/>
<path d="M98.0872 20.1716C98.2251 20.1716 98.3369 20.0399 98.3369 19.8774C98.3369 19.7149 98.2251 19.5831 98.0872 19.5831C97.9493 19.5831 97.8375 19.7149 97.8375 19.8774C97.8375 20.0399 97.9493 20.1716 98.0872 20.1716Z" fill="#575988"/>
<path d="M98.4074 20.7621C98.5453 20.7621 98.6571 20.6304 98.6571 20.4678C98.6571 20.3053 98.5453 20.1736 98.4074 20.1736C98.2695 20.1736 98.1577 20.3053 98.1577 20.4678C98.1577 20.6304 98.2695 20.7621 98.4074 20.7621Z" fill="#575988"/>
<path d="M98.7212 21.3073C98.8591 21.3073 98.9709 21.1755 98.9709 21.013C98.9709 20.8505 98.8591 20.7188 98.7212 20.7188C98.5833 20.7188 98.4715 20.8505 98.4715 21.013C98.4715 21.1755 98.5833 21.3073 98.7212 21.3073Z" fill="#575988"/>
<path d="M99.0492 21.8958C99.1871 21.8958 99.2989 21.764 99.2989 21.6015C99.2989 21.439 99.1871 21.3073 99.0492 21.3073C98.9113 21.3073 98.7995 21.439 98.7995 21.6015C98.7995 21.764 98.9113 21.8958 99.0492 21.8958Z" fill="#575988"/>
<path d="M128.555 21.8089C128.668 21.8089 128.759 21.7017 128.759 21.5694C128.759 21.4371 128.668 21.3298 128.555 21.3298C128.443 21.3298 128.352 21.4371 128.352 21.5694C128.352 21.7017 128.443 21.8089 128.555 21.8089Z" fill="#575988"/>
<path d="M128.587 22.3541C128.7 22.3541 128.791 22.2469 128.791 22.1146C128.791 21.9823 128.7 21.875 128.587 21.875C128.475 21.875 128.384 21.9823 128.384 22.1146C128.384 22.2469 128.475 22.3541 128.587 22.3541Z" fill="#575988"/>
<path d="M128.615 22.8973C128.727 22.8973 128.818 22.7901 128.818 22.6578C128.818 22.5255 128.727 22.4182 128.615 22.4182C128.502 22.4182 128.411 22.5255 128.411 22.6578C128.411 22.7901 128.502 22.8973 128.615 22.8973Z" fill="#575988"/>
<path opacity="0.1" d="M112.451 37.629C112.421 37.5857 119.478 48.0865 124.956 42.0184C124.96 42.0203 116.306 43.4029 112.451 37.629Z" fill="black"/>
<path opacity="0.1" d="M108.402 43.0879C108.402 43.0879 112.624 43.2237 113.066 44.6554V46.1455C112.946 46.2241 112.81 46.2654 112.673 46.2654C112.535 46.2654 112.4 46.2241 112.28 46.1455C111.854 45.8739 109.301 44.346 108.402 45.0817V43.0879Z" fill="black"/>
<path d="M108.48 43.0879C108.48 43.0879 112.519 43.218 112.941 44.5837V46.0022C112.826 46.0775 112.697 46.117 112.565 46.117C112.433 46.117 112.304 46.0775 112.189 46.0022C111.782 45.7456 109.341 44.2876 108.48 44.9892V43.0879Z" fill="#3F3D56"/>
<path opacity="0.1" d="M110.707 32.2834C111.138 33.4602 111.688 34.5716 112.344 35.5938C113.058 36.7237 113.923 37.7093 114.905 38.5119C114.905 38.5119 110.777 32.9663 110.707 32.2834Z" fill="black"/>
<path opacity="0.1" d="M109.325 26.502C109.325 26.502 110.029 30.0858 111.845 31.3025L109.325 26.502Z" fill="black"/>
<path opacity="0.1" d="M108.245 26.8641C108.227 26.7981 107.619 29.6935 110.585 31.3025C110.585 31.3025 109.325 30.7989 108.245 26.8641Z" fill="black"/>
<path opacity="0.1" d="M126.683 24.461C126.636 24.461 128.146 25.5928 128.557 26.1209C128.557 26.1209 127.574 24.3856 126.683 24.461Z" fill="black"/>
<path d="M117.13 21.9845C117.131 22.0802 117.148 22.1748 117.181 22.2622C117.214 22.3497 117.263 22.428 117.323 22.4924C117.383 22.5567 117.454 22.6057 117.531 22.6361C117.608 22.6665 117.689 22.6778 117.77 22.6692C118.905 22.7522 120.088 22.8107 121.132 22.2919C121.327 22.2096 121.503 22.0723 121.644 21.892C121.83 21.6223 121.866 21.2564 121.942 20.9206C122.089 20.2642 122.403 19.6813 122.628 19.057C123.01 18.0021 123.138 16.8437 122.998 15.7089C122.968 15.361 122.871 15.0259 122.713 14.7299C122.412 14.2225 121.863 14.0169 121.465 13.6132C121.066 13.2096 120.81 12.5928 120.344 12.2928C119.925 12.0174 119.411 12.0514 118.939 12.1457C118.01 12.3316 117.12 12.7254 116.317 13.3058C116.046 13.4944 115.75 13.7264 115.44 13.6566C115.168 13.5963 114.969 13.3265 114.8 13.0738C114.581 13.6774 114.49 14.3341 114.532 14.9883C114.544 15.0843 114.541 15.182 114.524 15.2769C114.485 15.3916 114.426 15.4952 114.35 15.5806C114.07 15.9579 113.895 16.5709 114.172 16.9595C114.292 17.1273 114.478 17.2198 114.595 17.3914C114.804 17.6989 114.734 18.1459 114.729 18.5383C114.718 18.6753 114.747 18.8127 114.812 18.9268C114.873 18.9934 114.947 19.0403 115.027 19.0631C115.108 19.0859 115.192 19.0838 115.272 19.057C115.43 19.0007 115.597 18.9821 115.762 19.0023C115.935 19.0688 116.085 19.2015 116.187 19.3795C116.704 20.1737 116.909 21.0376 117.13 21.9845Z" fill="#2D293D"/>
<g opacity="0.1">
<path opacity="0.1" d="M121.777 21.5581C121.636 21.7384 121.46 21.8756 121.265 21.958C120.215 22.4729 119.033 22.4145 117.903 22.3352C117.782 22.3367 117.662 22.305 117.553 22.2428C117.38 22.124 117.314 21.875 117.261 21.6486C117.04 20.7055 116.837 19.8397 116.312 19.0531C116.211 18.8717 116.061 18.7355 115.886 18.6665C115.722 18.6481 115.556 18.6667 115.397 18.7212C115.317 18.7482 115.233 18.7506 115.153 18.7281C115.072 18.7057 114.998 18.6591 114.937 18.5929C114.872 18.4788 114.842 18.3413 114.854 18.2043C114.854 17.8082 114.929 17.3649 114.72 17.0575C114.603 16.8858 114.417 16.7934 114.297 16.6236C114.219 16.4985 114.171 16.3506 114.158 16.1959C114.145 16.0411 114.168 15.8851 114.225 15.7446C114.025 16.1219 113.94 16.5953 114.172 16.9198C114.292 17.0876 114.478 17.1801 114.595 17.3517C114.804 17.6611 114.734 18.1062 114.729 18.4986C114.717 18.6354 114.746 18.7729 114.811 18.8871C114.872 18.954 114.946 19.0011 115.027 19.0239C115.108 19.0467 115.192 19.0445 115.272 19.0173C115.43 18.961 115.597 18.9424 115.762 18.9626C115.935 19.0291 116.085 19.1618 116.187 19.3398C116.711 20.1264 116.916 20.9903 117.137 21.9372C117.162 22.1702 117.261 22.3835 117.413 22.5352C117.523 22.5975 117.644 22.6285 117.766 22.6257C118.9 22.7087 120.083 22.7691 121.127 22.2485C121.323 22.1667 121.499 22.0294 121.639 21.8486C121.71 21.7423 121.764 21.6223 121.799 21.494C121.801 21.5185 121.79 21.5392 121.777 21.5581Z" fill="black"/>
<path opacity="0.1" d="M114.532 15.1618C114.583 15.0974 114.621 15.0217 114.646 14.9392C114.66 14.8437 114.66 14.746 114.646 14.6506C114.615 14.1128 114.674 13.573 114.82 13.0624L114.8 13.0341C114.581 13.6368 114.489 14.2931 114.532 14.9467C114.537 15.0183 114.537 15.0902 114.532 15.1618Z" fill="black"/>
</g>
<path opacity="0.1" d="M116.466 24.6441C116.466 24.6441 121.119 25.3721 121.537 24.5479L116.466 24.6441Z" fill="black"/>
<path opacity="0.1" d="M125.511 22.3749C125.511 22.3749 128.098 22.3749 128.666 23.5217L125.511 22.3749Z" fill="black"/>
<path d="M139.982 124.261C139.215 125.07 138.218 125.509 137.189 125.491C136.927 125.491 136.563 125.55 136.562 125.859C136.568 125.95 136.595 126.037 136.639 126.112C136.963 126.75 137.476 127.225 138.079 127.445C138.639 127.645 139.238 127.611 139.822 127.576L141.527 127.472C141.847 127.451 142.167 127.432 142.487 127.385C142.808 127.338 143.156 127.261 143.491 127.196C144.313 127.059 145.144 127.013 145.974 127.061C146.194 127.07 146.454 127.061 146.585 126.872C146.716 126.683 146.649 126.323 146.599 126.04C146.497 125.457 146.599 124.846 146.505 124.261C146.345 123.235 145.591 122.449 144.765 122.077C143.997 121.734 142.636 121.34 141.91 121.913C141.143 122.515 140.674 123.52 139.982 124.261Z" fill="#3F3D56"/>
<path d="M141.676 89.8823C141.826 90.7255 142.52 91.3706 142.539 92.2307C142.556 92.9211 142.139 93.5002 141.838 94.0906C141.554 94.7021 141.315 95.3406 141.122 95.9995C140.556 97.715 139.852 99.3634 139.022 100.923C138.622 101.677 138.174 102.483 138.265 103.36C138.329 103.77 138.452 104.164 138.628 104.525L139.829 107.336C140.092 107.897 140.298 108.493 140.442 109.111C140.546 109.645 140.556 110.197 140.616 110.741C140.805 112.465 141.492 114.2 141.085 115.871C141.05 116.015 140.925 116.188 140.828 116.088C141.225 116.962 141.543 117.841 141.513 118.831C141.497 119.35 141.362 119.891 141.524 120.374C141.593 120.576 141.713 120.764 141.711 120.981C141.711 121.125 141.655 121.258 141.642 121.398C141.609 121.796 141.919 122.128 142.241 122.254C142.563 122.381 142.913 122.371 143.238 122.486C143.863 122.707 144.309 123.341 144.839 123.78C145.382 124.222 146.023 124.467 146.683 124.488C146.777 124.5 146.872 124.477 146.955 124.424C147.002 124.375 147.04 124.315 147.066 124.248C147.092 124.181 147.105 124.109 147.105 124.035C147.134 123.683 147.089 123.327 146.974 123C146.859 122.674 146.678 122.385 146.446 122.16C146.344 122.085 146.26 121.981 146.201 121.858C146.171 121.749 146.163 121.634 146.179 121.521C146.275 119.975 146.252 118.421 146.108 116.88C146.043 116.392 146.023 115.897 146.046 115.403C146.079 114.992 146.185 114.585 146.147 114.176C146.108 113.766 145.931 113.393 145.826 112.998C145.641 112.297 145.692 111.542 145.666 110.809C145.634 109.533 145.386 108.281 145.14 107.036C145.042 106.547 144.935 106.036 144.642 105.674C144.392 105.367 143.989 105.072 144.083 104.663C144.136 104.512 144.214 104.375 144.312 104.261C144.428 104.09 144.513 103.892 144.562 103.681C144.611 103.47 144.623 103.249 144.597 103.031C144.702 103.063 144.814 103.051 144.912 102.996C145.011 102.942 145.09 102.849 145.137 102.733C147.086 101.649 148.658 99.4796 149.359 97.0746C149.4 96.896 149.464 96.7257 149.548 96.5691C149.729 96.2711 150.043 96.1428 150.321 95.9787C151.195 95.46 151.798 94.4886 152.352 93.5379C152.672 92.9871 152.993 92.4174 153.137 91.7686C153.212 91.3489 153.248 90.9206 153.244 90.4916L153.293 88.2752C153.304 88.1293 153.292 87.9822 153.258 87.8414C153.211 87.7098 153.142 87.5905 153.055 87.4905C152.523 86.8271 151.823 86.3828 151.061 86.223C150.548 86.1154 150.025 86.1362 149.506 86.0853C148.501 85.9872 147.509 85.6194 146.504 85.708C144.924 85.8457 143.517 87.1359 142.772 88.7845C142.512 89.3655 142.236 89.871 141.676 89.8823Z" fill="#464353"/>
<path d="M132.904 75.4714C132.926 75.8135 132.886 76.1572 132.789 76.4805C132.666 76.7898 132.357 77.0313 132.086 76.9049C132.168 76.688 131.952 76.4409 131.75 76.4673C131.651 76.4943 131.559 76.5492 131.482 76.6274C131.405 76.7056 131.345 76.8047 131.307 76.9162C131.173 77.233 131.128 77.5917 131.179 77.9405C131.243 78.3743 131.456 78.7912 131.4 79.2269C131.355 79.5891 131.129 79.9493 131.249 80.2851C131.327 80.4385 131.425 80.5766 131.539 80.6944C131.697 80.924 131.775 81.2163 131.755 81.5111C131.736 81.8059 131.621 82.0807 131.435 82.2789L134.463 82.3506C134.353 82.9466 134.58 83.5559 134.84 84.0859C135.566 85.5432 136.569 86.7823 137.77 87.7062C138.97 88.63 140.337 89.2135 141.761 89.4108C141.684 89.4638 141.618 89.5363 141.567 89.6231C141.517 89.7098 141.484 89.8087 141.47 89.9125C141.456 90.0162 141.462 90.1224 141.487 90.2232C141.512 90.324 141.556 90.417 141.615 90.4954C141.862 90.784 142.279 90.7482 142.588 90.5615C142.897 90.3747 143.139 90.0654 143.421 89.8258C143.918 89.4106 144.525 89.2179 145.132 89.2826C145.511 89.326 145.879 89.4712 146.26 89.4938C147.381 89.5636 148.341 88.613 149.42 88.2244C150.206 87.9396 151.097 87.9396 151.757 87.3605C152.042 87.1115 152.275 86.7022 152.192 86.2985C152.123 86.0665 152.014 85.8539 151.872 85.6742C151.493 85.0951 151.269 84.399 150.996 83.7407C150.457 82.4374 149.715 81.2651 148.808 80.2851C148.124 79.5801 147.399 78.9322 146.638 78.346C146.454 78.186 146.258 78.0465 146.052 77.9291C145.786 77.7915 145.492 77.7254 145.252 77.5519C144.896 77.2878 144.692 76.8219 144.418 76.4465C143.818 75.6204 142.896 75.2412 142.156 74.5923C141.66 74.1566 141.221 73.5832 140.629 73.3738C140.341 73.2701 140.035 73.2625 139.747 73.1607C139.093 72.9268 138.616 72.2421 137.974 71.9648C137.466 71.746 136.906 71.8026 136.373 71.7252C135.772 71.6379 135.198 71.3803 134.7 70.9745C134.54 70.8205 134.36 70.6971 134.167 70.6086C133.356 70.3181 133.29 72.0987 133.207 72.7155C133.1 73.6322 132.904 74.5433 132.904 75.4714Z" fill="#F30A1A"/>
<path d="M133.695 81.4432C133.831 83.1824 132.717 84.8668 133.042 86.5701C133.111 86.9322 133.244 87.2774 133.292 87.6453C133.428 88.6544 132.916 89.6107 132.427 90.4558L128.234 97.7085C128.065 98.0269 127.864 98.3196 127.635 98.5799C126.835 99.4193 125.631 99.3344 124.578 99.5834C123.838 99.7626 123.139 100.127 122.529 100.651C122.501 100.676 122.483 100.713 122.479 100.753C122.474 100.794 122.483 100.835 122.503 100.868C122.677 101.147 122.908 101.37 123.174 101.518C123.439 101.665 123.732 101.731 124.026 101.711C124.136 101.881 124.026 102.134 123.874 102.256C123.649 102.445 123.339 102.488 123.294 102.939C123.279 103.096 123.306 103.254 123.371 103.392C123.54 103.696 123.803 103.911 124.104 103.992C125.556 104.516 127.124 103.595 128.211 102.345C129.298 101.094 130.078 99.5155 131.144 98.2442C131.734 97.5387 132.405 96.937 133.013 96.2542C134.226 94.8904 135.171 93.2361 136.08 91.5781C136.354 91.0783 136.631 90.5652 136.744 89.9861C136.858 89.407 136.805 88.8204 136.935 88.2602C137.104 87.5264 137.561 86.9398 137.94 86.3249C138.684 85.1177 139.182 83.6407 139.083 82.1525C138.984 80.6642 138.202 79.1967 137.012 78.6912C136.642 78.5182 136.236 78.4891 135.851 78.6082C135.363 78.7855 135.003 79.2608 134.67 79.7173L133.87 80.8C133.675 81.0398 133.522 81.3224 133.42 81.6318C133.368 81.7877 133.356 81.9578 133.384 82.1218C133.413 82.2857 133.48 82.4365 133.58 82.5561" fill="#FBBEBE"/>
<path d="M135.821 74.3093C135.27 74.347 134.664 74.4112 134.275 74.8752C134.111 75.0883 133.98 75.3318 133.884 75.5957C133.506 76.503 133.138 77.4518 133.111 78.4629C133.089 79.2702 133.287 80.0605 133.391 80.8584C133.477 81.5224 133.258 82.1996 133.217 82.8711C133.9 82.624 134.803 82.2882 135.422 81.8714C135.845 81.5865 136.253 81.2621 136.714 81.081C137.372 80.8226 138.475 81.2696 139.101 81.628C139.134 81.1112 138.804 80.2096 138.84 79.6908C138.844 79.4725 138.877 79.2562 138.937 79.0495C139.031 78.8308 139.142 78.623 139.269 78.4289C139.507 77.9725 139.616 77.4389 139.582 76.9045C139.547 76.3702 139.369 75.8626 139.075 75.4543C138.519 74.7186 137.65 74.4432 136.821 74.3225C136.299 74.2512 135.773 74.2297 135.248 74.2584" fill="#F30A1A"/>
<defs>
<linearGradient id="paint0_linear" x1="113.04" y1="103.024" x2="113.04" y2="10.8498" gradientUnits="userSpaceOnUse">
<stop stop-color="#808080" stop-opacity="0.25"/>
<stop offset="0.54" stop-color="#808080" stop-opacity="0.12"/>
<stop offset="1" stop-color="#808080" stop-opacity="0.1"/>
</linearGradient>
</defs>
</svg>
